<svg xmlns="http://www.w3.org/2000/svg" width="32" height="32" fill="none" viewBox="0 0 32 32">
    <path fill="#FFDD24" d="M16.002 0C24.841 0 32 7.163 32 15.997c0 8.838-7.164 16.001-15.998 16.001S0 24.835 0 15.997C.005 7.163 7.168 0 16.002 0z"/>
    <path fill="#C8AC13" d="M10.335 21.157H21.69a.517.517 0 1 1 0 1.037H10.335a.517.517 0 1 1 0-1.037z"/>
    <path fill="#C8AC13" fill-rule="evenodd" d="M11.885 9.804c1.142 0 2.063 1.388 2.063 3.099 0 1.71-.926 3.098-2.063 3.098-1.142 0-2.063-1.388-2.063-3.098-.005-1.71.921-3.1 2.063-3.1zm8.255 0c1.142 0 2.063 1.388 2.063 3.099 0 1.71-.926 3.098-2.063 3.098s-2.062-1.388-2.062-3.098.92-3.1 2.062-3.1z" clip-rule="evenodd"/>
</svg>
