<svg xmlns="http://www.w3.org/2000/svg" width="32" height="32" fill="none" viewBox="0 0 32 32">
    <path fill="#FFDD24" d="M15.998 0c8.84 0 15.998 7.164 15.998 15.998C31.996 24.835 24.832 32 15.998 32S0 24.836 0 15.998C-.005 7.164 7.159 0 15.998 0z"/>
    <path fill="#C8AC13" fill-rule="evenodd" d="M8.018 19.66a.509.509 0 0 1 .724.08l.005-.005a9.259 9.259 0 0 0 7.25 3.491 9.259 9.259 0 0 0 7.25-3.49h.01a.518.518 0 0 1 .724-.081.518.518 0 0 1 .08.724c-.005.01-.02.015-.025.02a10.302 10.302 0 0 1-16.063.005c-.01-.01-.02-.015-.03-.025a.507.507 0 0 1 .075-.72zM11.863 9.805c1.143 0 2.063 1.388 2.063 3.098s-.926 3.1-2.063 3.1c-1.142 0-2.062-1.39-2.062-3.1 0-1.71.925-3.098 2.062-3.098zm8.261 0c1.142 0 2.063 1.388 2.063 3.098s-.926 3.1-2.063 3.1c-1.142 0-2.063-1.39-2.063-3.1-.005-1.71.921-3.098 2.063-3.098z" clip-rule="evenodd"/>
</svg>
