<svg xmlns="http://www.w3.org/2000/svg" width="32" height="32" fill="none" viewBox="0 0 32 32">
    <path fill="#FFDD24" d="M15.997 0C24.836 0 32 7.163 32 15.997c0 8.838-7.164 16.001-16.003 16.001S0 24.835 0 15.997C-.005 7.163 7.158 0 15.997 0z"/>
    <path fill="#C8AC13" d="M15.997 19.095a6.192 6.192 0 0 1 6.193 6.192H9.804c-.005-3.415 2.772-6.192 6.193-6.192z"/>
    <path fill="url(#a)" fill-rule="evenodd" d="M21.05 22.712c.323.629.534 1.328.6 2.063H10.345c.065-.74.276-1.434.598-2.063h10.107z" clip-rule="evenodd"/>
    <path fill="#C8AC13" fill-rule="evenodd" d="M11.865 9.809c1.142 0 2.062 1.388 2.062 3.099 0 1.71-.925 3.098-2.062 3.098-1.142 0-2.063-1.388-2.063-3.098s.92-3.099 2.063-3.099zm8.255 0c1.142 0 2.063 1.388 2.063 3.099 0 1.71-.926 3.098-2.063 3.098s-2.062-1.388-2.062-3.098.925-3.099 2.062-3.099z" clip-rule="evenodd"/>
    <defs>
        <linearGradient id="a" x1="21.649" x2="10.347" y1="23.742" y2="23.742" gradientUnits="userSpaceOnUse">
            <stop offset=".05" stop-color="#C8AC13"/>
            <stop offset=".3" stop-color="#fff"/>
            <stop offset=".7" stop-color="#fff"/>
            <stop offset=".95" stop-color="#C8AC13"/>
        </linearGradient>
    </defs>
</svg>
