<svg xmlns="http://www.w3.org/2000/svg" width="32" height="32" fill="none" viewBox="0 0 32 32">
    <path fill="#FFDD24" d="M15.998 0c8.84 0 15.998 7.164 15.998 15.998C31.996 24.835 24.832 32 15.998 32S0 24.836 0 15.998C0 7.164 7.164 0 15.998 0z"/>
    <path fill="#C8AC13" fill-rule="evenodd" d="M9.857 21.637c.02-.015.046-.02.07-.03a10.243 10.243 0 0 1 12.15.005c.02.01.04.015.06.025a.515.515 0 0 1 .107.724.514.514 0 0 1-.72.106l-.005.005A9.258 9.258 0 0 0 16 20.641a9.224 9.224 0 0 0-5.519 1.831l-.005-.01a.52.52 0 0 1-.724-.106.51.51 0 0 1 .105-.72zM11.87 9.805c1.142 0 2.062 1.388 2.062 3.098s-.925 3.1-2.063 3.1c-1.136 0-2.062-1.39-2.062-3.1 0-1.71.925-3.098 2.063-3.098zm8.26 0c1.142 0 2.063 1.388 2.063 3.098s-.926 3.1-2.063 3.1-2.062-1.39-2.062-3.1c-.006-1.71.92-3.098 2.062-3.098z" clip-rule="evenodd"/>
</svg>
