<svg width="16" height="16" viewBox="0 0 16 16" fill="none" xmlns="http://www.w3.org/2000/svg">
    <path d="m4.676 15.505.01-.006 3.63-2.75h5.412c1.032 0 1.872-.78 1.872-1.76v-8.33C15.6 1.68 14.76.9 13.728.9H2.772C1.74.9.9 1.68.9 2.66v8.329c0 .98.84 1.76 1.872 1.76h1.06v2.364c0 .187.122.366.3.445.084.042.152.042.215.042h.004a.643.643 0 0 0 .325-.095zm9.918-4.632h-.016v.1c0 .421-.367.77-.834.77H8.12a.643.643 0 0 0-.325.095l-.01.006-2.916 2.214v-1.829c0-.272-.246-.486-.519-.486H2.772c-.467 0-.834-.349-.834-.77V2.692c0-.422.367-.77.834-.77H13.76c.467 0 .834.348.834.77v8.18z" fill="#FCB13A" stroke="#FCB13A" stroke-width=".2"/>
    <path d="M5.366 4.432 3.674 9.136h1.031l.323-.967h1.74l.306.967h1.063l-1.66-4.704H5.367zm-.064 2.932.612-1.853.596 1.853H5.302zM12.406 8.75a2.367 2.367 0 0 1-.032-.436v-.322c0-.322-.048-.58-.129-.74a.85.85 0 0 0-.467-.371c.258-.097.451-.242.564-.452a1.38 1.38 0 0 0 .16-.66c0-.177-.031-.355-.08-.5-.048-.145-.145-.273-.241-.402a1.062 1.062 0 0 0-.435-.323c-.178-.08-.42-.112-.741-.128H8.749V9.12h.967V7.283h.966c.274 0 .468.049.564.145.097.097.145.306.161.596v.435c0 .145.017.274.049.403.016.065.032.145.064.258h1.08v-.113c-.113-.048-.162-.145-.194-.258zm-1.16-2.32a1.16 1.16 0 0 1-.467.08H9.716V5.253h1.08c.209 0 .354.033.45.08.178.098.274.29.274.58 0 .259-.08.436-.274.516z" fill="#FCB13A"/>
</svg>
