<svg width="16" height="16" viewBox="0 0 16 16" fill="none" xmlns="http://www.w3.org/2000/svg">
<path d="M4.67645 15.5052L4.67675 15.5057L4.68539 15.4991L8.31583 12.7483H13.7278C14.7596 12.7483 15.6 11.9685 15.6 10.9889V2.65944C15.6 1.67986 14.7596 0.9 13.7278 0.9H2.77222C1.74043 0.9 0.9 1.67986 0.9 2.65944V10.9889C0.9 11.9685 1.74043 12.7483 2.77222 12.7483H3.83222V15.1133C3.83222 15.3001 3.95404 15.4785 4.13123 15.5582C4.21589 15.6 4.28373 15.6 4.34748 15.6H4.35111C4.46923 15.6 4.58348 15.561 4.67645 15.5052ZM14.5944 10.8728H14.5783V10.9728C14.5783 11.394 14.2113 11.7428 13.7439 11.7428H8.12111C8.00299 11.7428 7.88874 11.7818 7.79577 11.8376L7.79547 11.8371L7.78676 11.8437L4.87 14.058V12.2294C4.87 11.9572 4.62399 11.7428 4.35111 11.7428H2.77222C2.30479 11.7428 1.93778 11.394 1.93778 10.9728V2.69167C1.93778 2.27041 2.30479 1.92167 2.77222 1.92167H13.76C14.2274 1.92167 14.5944 2.27041 14.5944 2.69167V10.8728Z" fill="#FCB13A" stroke="#FCB13A" stroke-width="0.2"/>
<path d="M4.48 9.12V7.608H6.72V6.736H4.48V5.28H6.92V4.4H3.56V10H6.96V9.12H4.48ZM11.2422 4.4V8.2L8.60219 4.4H7.88219V10H8.80219V6.2L11.4422 10H12.1622V4.4H11.2422Z" fill="#FCB13A"/>
</svg>
