<svg width="11" height="11" viewBox="0 0 11 11" fill="none" xmlns="http://www.w3.org/2000/svg">
    <path d="M4.654 0H.424A.423.423 0 0 0 0 .425v4.23c0 .234.19.424.423.424h4.231c.234 0 .423-.19.423-.423V.424A.423.423 0 0 0 4.654 0zM10.577 0H6.346a.423.423 0 0 0-.423.423v4.23c0 .235.19.424.423.424h4.231c.234 0 .423-.19.423-.423V.424A.423.423 0 0 0 10.577 0zM4.654 5.923H.424A.423.423 0 0 0 0 6.346v4.231c0 .234.19.423.423.423h4.231c.234 0 .423-.19.423-.423v-4.23a.423.423 0 0 0-.423-.424zM10.576 5.923H6.345a.423.423 0 0 0-.423.423v4.231c0 .234.19.423.423.423h4.231c.234 0 .423-.19.423-.423v-4.23a.423.423 0 0 0-.423-.424z" fill="#FCB13A"/>
</svg>
