<svg width="12" height="14" viewBox="0 0 12 14" fill="none" xmlns="http://www.w3.org/2000/svg">
    <path d="M11.133 4.365a.75.75 0 0 0-1.008-.256.738.738 0 0 0-.24 1.022 4.5 4.5 0 0 1 .638 2.811c-.213 2.187-2.016 3.92-4.203 4.075A4.529 4.529 0 0 1 1.48 7.46c.028-2.428 2.016-4.444 4.444-4.487h.028v1.08c0 .312.341.51.61.34l2.911-1.817a.399.399 0 0 0 0-.682L6.576.063a.398.398 0 0 0-.61.34v1.094a6.011 6.011 0 0 0-5.95 6.46C.23 10.896 2.6 13.267 5.54 13.48c3.522.27 6.46-2.528 6.46-5.992a5.873 5.873 0 0 0-.866-3.123z" fill="#FCB13A"/>
</svg>
