<svg xmlns="http://www.w3.org/2000/svg" width="33" height="33" fill="none" viewBox="0 0 33 33">
    <path fill="#fff" d="M8.239 0H5.885v3.914h2.354V0zM22.363 0h-2.747v3.914h2.747V0z"/>
    <path fill="#fff" d="M27.855 4.5a1.724 1.724 0 0 0-1.686-1.76h-2.63v1.878c0 .314-.313.47-.627.47h-3.727c-.314 0-.745-.157-.745-.47V2.74H9.415v1.878c0 .313-.236.47-.55.47H5.14c-.314 0-.432-.157-.432-.47V2.74H1.922C.942 2.74 0 3.56 0 4.5v5.285h27.855V4.5zM23.383 12.916c1.55-.011 3.08.337 4.472 1.017V10.96H0V27.2c0 .94.942 1.762 1.922 1.762H14.4a10.392 10.392 0 0 1-1.57-5.48c0-5.82 4.719-10.546 10.554-10.567z"/>
    <path fill="#fff" d="M23.623 14.247c-5.178 0-9.376 4.188-9.376 9.354 0 5.166 4.198 9.355 9.377 9.355 5.163 0 9.354-4.165 9.376-9.316 0-5.172-4.192-9.372-9.377-9.393zm3.688 10.567h-4.198c-.314 0-.549-.078-.549-.39v-5.48a.588.588 0 0 1 1.177 0v4.696h3.57a.588.588 0 1 1 0 1.174z"/>
</svg>
