<svg xmlns="http://www.w3.org/2000/svg" width="54" height="54" fill="none" viewBox="0 0 54 54">
    <circle cx="27" cy="27" r="27" fill="#C1E9E4"/>
    <circle cx="27" cy="27" r="26" stroke="#fff" stroke-opacity=".5" stroke-width="2"/>
    <mask id="a" width="50" height="50" x="2" y="2" maskUnits="userSpaceOnUse">
        <circle cx="27" cy="27" r="25" fill="#C4C4C4"/>
    </mask>
    <g mask="url(#a)">
        <path fill="#663F30" d="M37.47 14.718s-.916 7.326-1.604 19.18c-.68 11.764 1.908 14.688 1.908 14.688l-5.725.295s-3.742-15.795-2.826-19.55c.916-3.756 5.573-12.408 5.573-12.408l2.674-2.205zM21.012 9.069s-7.239 2.393-5.41 14.21c.25 1.61.472 3.214.517 6.186.096 6.331-4.011 19.935-4.011 19.935l9.486-.736s.151-16.126-.076-18.188c-.228-2.062-.506-21.407-.506-21.407z"/>
        <path fill="#9D7562" d="M17.95 23.445s1.832 6.792 1.548 11.651c-.287 4.86-.517 5.523-.517 5.523l14.424.663s-2.118-6.076-.056-12.756c2.062-6.682 1.261-6.129 1.261-6.129l-16.66 1.048z"/>
        <path fill="#EFC39F" d="M30.438 30.016s-.654 6.615.363 9.208c.713 1.82 4.45 2.354 6.503 2.469 2.213.126 2.764.79 2.887 4.708.11 3.53.216 4.634.216 4.634l-30.244-.806s.053-5.983 1.528-7.78c1.475-1.798 7.56 1.26 9.155-3.756.988-3.107.764-11.537.764-11.537l8.828 2.86z"/>
        <path fill="#138B7E" d="M10.046 47.743s12.542 1.823 19.41-.663c6.87-2.486 6.47-5.671 6.47-5.671l1.381.112s3.885-.076 5.202 3.79c1.318 3.865 2.234 5.522 2.234 5.522l-35.439.61.742-3.7z"/>
        <path fill="#663F30" d="M19.077 14.313s-2.098 4.234-1.031 11.964c1.067 7.733 2.253 9.536 2.253 9.536s-4.276-7.84-3.818-14.651c.458-6.812 2.596-6.849 2.596-6.849z"/>
        <path fill="#B1836E" d="M21.518 30.476c.028.312 5.598 7.601 7.736 9 2.137 1.4 3.02.936 3.02.936s-2.18.244-2.105-6.09c.076-6.332.551-6.7.551-6.7l-9.202 2.854z" opacity=".2"/>
        <path fill="#EFC39F" d="M36.207 19.773c-.562.031-.941.526-1.158.95.208-3.71-.528-7.163-.528-7.163-1.68-5.155-13.126-5.155-15.343-1.618-.76 1.216-1.427 5.09-1.424 8.284-.244-.332-.59-.63-1.036-.638-.95-.02-.028 2.441.508 4.154.32 1.029.77 1.75 1.15 2.085.218.196.418.258.55.171 1.637 4.208 4.517 8.447 7.163 8.343 3.081-.12 6.35-4.011 8.09-9.07-.031.41-.02.707.056.789.331.343 1.168-.528 1.626-2.216.464-1.694 1.27-4.121.346-4.07z"/>
        <path fill="#663F30" d="M18.218 28.395s-.705 2.649-1.011 6.036C16.9 37.82 15.86 50.89 16.052 50.89c.191 0 4.885.441 4.885.441s.03-10.272-.848-16.713c-.88-6.441-1.871-6.222-1.871-6.222z"/>
        <path fill="#8D522B" d="M37.871 49.712l-.053.005c.042.028.053-.005.053-.005z"/>
        <path fill="#663F30" d="M36.04 45.071c-1.66-5.19-.915-17.008-.915-17.008s-.995-3.031-2.512 3.534c-1.517 6.573-.53 19.146-.53 19.146h1.983s.317-1.953-.029-5.543l-.022-.241c.63 2.924.966 5.784.966 5.784h2.747c-.126-.087-.44-1.77-1.688-5.672z"/>
        <path fill="#fff" d="M28.378 22.1c.126-.29.55-1.095 2.168-1.152 1.604-.056 2.2 1.029 2.2 1.029s.011.154-1.975.289c-1.983.135-2.022-.023-2.452.073-.43.095.059-.239.059-.239z"/>
        <path fill="#4C8159" d="M31.583 21.737c-.087.686-.7 1.172-1.366 1.082-.668-.09-1.14-.716-1.053-1.405.087-.685.697-1.171 1.365-1.081.669.09 1.14.716 1.054 1.404z"/>
        <path fill="#231F20" d="M31.024 21.687a.638.638 0 0 1-.71.564.65.65 0 0 1-.549-.73.638.638 0 0 1 .711-.565c.349.042.593.371.548.73z"/>
        <path fill="#231F20" d="M32.094 22.27c1.076-.12 1.11-.581 1.11-.581s-.27-.02-1.163-.508c-.68-.368-1.744-.335-2.2-.248-.674.13-.977.498-.977.498s.683-.383 1.64-.368c1.543.025 2.2.876 2.2.876s-.523.194-1.203.284c-.542.073-1.3.112-1.3.112s.787.06 1.893-.065z"/>
        <path fill="#fff" d="M31.659 21.493c-.396-.06-.728.061-.509.171.222.11.542.174.601.073.037-.059.02-.227-.093-.244z"/>
        <path fill="#915E38" d="M22.08 28.3c.573.356 2.078 2.435 4.295 2.373 1.904-.053 3.286-1.455 3.699-1.93.081-.098.315-.222.087-.182-.37.064-1.744.27-3.34.207-1.598-.061-3.994-.533-4.694-.665-.129-.026-.19.106-.047.196z"/>
        <path fill="#fff" d="M23.63 28.563s.587.986.8 1.104c.211.118.99.59 2.163.55 1.174-.038 1.613-.611 1.745-.715.132-.107.556-.616.556-.616s-1.972-.002-2.902-.014c-.932-.01-2.362-.309-2.362-.309z"/>
        <path fill="#F6989A" d="M22.04 28.28c.056.09 1.38 1.472 1.798 1.868.418.396.887 1.093 2.208 1.19 1.32.102 2.295-.648 2.55-1.019.256-.368 1.458-1.508 1.497-1.556.043-.045-.193.062-.505.241-.354.208-1.716 1.495-3.034 1.458-1.101-.03-1.78-.207-2.649-.915-1.46-1.194-1.764-1.225-1.865-1.267-.098-.04-.022-.037 0 0z"/>
        <path fill="#F6989A" d="M27.026 28.13c.477.076.668.099 1.663.301 1.042.21 1.421.107 1.545.118.165.017-.405.18-.955.245-.551.064-1.264.376-3.146.266-1.883-.11-3.085-.668-3.436-.766-.55-.155-.876-.194-.444-.189.433.006 1.787.011 2.49-.045.704-.061 1.867.006 2.283.07z"/>
        <path fill="#703518" d="M23.24 28.819s1.496.43 3.039.54c1.542.109 2.806-.119 2.806-.119s.297-.2.455-.39c.16-.188-1.48.073-3.377-.13a73.155 73.155 0 0 1-3.854-.539l.93.638z" opacity=".1"/>
        <path fill="#fff" d="M24.745 28.232c.584-.21 1.477-.137 2.626.07 1.146.208 1.124.38-.03.301-1.155-.076-3.152-.171-2.596-.37z" opacity=".35"/>
        <path fill="#915E38" d="M28.44 19.84c.106-.195 1.438-1.335 3.264-1.195 1.823.14 2.016 1.104 2.12 1.262.107.16 0-.07-.334-.211-.331-.14-.612-.542-2.244-.562-1.632-.017-2.7.79-2.823.81-.124.016.017-.105.017-.105z"/>
        <path fill="#fff" d="M24.209 21.95c-.118-.295-.514-1.112-2.132-1.222-1.601-.107-2.23.955-2.23.955s-.015.155 1.963.354c1.978.2 2.023.042 2.45.152.426.112-.051-.239-.051-.239z"/>
        <path fill="#4C8159" d="M21.016 21.481c.064.688.663 1.194 1.331 1.127.671-.068 1.16-.68 1.096-1.369-.065-.688-.66-1.193-1.332-1.126-.668.067-1.16.68-1.095 1.368z"/>
        <path fill="#231F20" d="M21.578 21.45c.034.36.345.623.694.59a.652.652 0 0 0 .573-.714.64.64 0 0 0-.694-.587.644.644 0 0 0-.573.71z"/>
        <path fill="#231F20" d="M20.49 22.001c-1.07-.157-1.002-.713-1.002-.713s.17.056.938-.318c.969-.469 1.708-.34 2.286-.227.674.129 1.034.525 1.034.525s-.671-.405-1.63-.422c-1.541-.025-2.227.801-2.227.801s.514.21 1.191.326c.542.09 1.298.154 1.298.154s-.784.031-1.888-.126z"/>
        <path fill="#fff" d="M23.487 21.675c-.396.042-.724-.092-.5-.194.222-.1.548-.149.604-.047.034.061.009.23-.104.241z"/>
        <path fill="#915E38" d="M24.161 19.524c-.106-.194-1.438-1.334-3.26-1.194-1.827.14-2.02 1.104-2.125 1.262-.106.157 0-.07.332-.211.334-.14.615-.545 2.247-.562 1.632-.017 2.7.79 2.823.806.124.02-.017-.1-.017-.1z"/>
        <path fill="#C59580" d="M24.642 25.844s.739.478 1.784.565c1.044.087 1.435-.478 1.435-.478s-.565.042-1.61 0c-1.042-.042-1.61-.087-1.61-.087z"/>
        <path fill="#663F30" d="M29.038 17.883c8.69 6.05 7.747 7.73 6.334 11.118 0 0 5.713-4.18 3.205-12.553-1.399-4.669-9.947-11.405-17.332-7.818-.005.003-.005.014-.005.026-1.857.634-5.722 3.05-6.132 7.64-.354 3.964.764 8.989.764 8.989s1.174 8.38 1.174 3.444c0-11.857 4.29-16.096 4.885-17.526.685 5.492 7.241 7.669 7.241 7.669s-3.272-2.587-3.809-5.332c1.205 1.703 1.374 2.742 3.675 4.343z"/>
    </g>
</svg>
