<svg width="54" height="54" viewBox="0 0 54 54" fill="none" xmlns="http://www.w3.org/2000/svg">
<circle cx="27" cy="27" r="27" fill="#C1E9E4"/>
<circle cx="27" cy="27" r="26" stroke="white" stroke-opacity="0.5" stroke-width="2"/>
<g opacity="0.7">
<mask id="mask0" mask-type="alpha" maskUnits="userSpaceOnUse" x="2" y="2" width="50" height="50">
<circle cx="27" cy="27" r="25" fill="#C4C4C4"/>
</mask>
<g mask="url(#mask0)">
<path d="M37.4702 14.7178C37.4702 14.7178 36.5545 22.0436 35.8663 33.8975C35.1865 45.6616 37.7736 48.5858 37.7736 48.5858L32.0489 48.8807C32.0489 48.8807 28.3073 33.0857 29.223 29.3301C30.1388 25.5745 34.7961 16.9228 34.7961 16.9228L37.4702 14.7178Z" fill="#663F30"/>
<path d="M21.0123 9.0686C21.0123 9.0686 13.7735 11.4619 15.6021 23.2793C15.8521 24.8888 16.074 26.4928 16.119 29.4647C16.2145 35.7961 12.1078 49.4001 12.1078 49.4001L21.5937 48.6641C21.5937 48.6641 21.7454 32.5377 21.5179 30.4759C21.2903 28.4141 21.0123 9.0686 21.0123 9.0686Z" fill="#663F30"/>
<path d="M17.9501 23.4449C17.9501 23.4449 19.7816 30.237 19.4979 35.0965C19.2114 39.9561 18.981 40.619 18.981 40.619L33.4052 41.2819C33.4052 41.2819 31.2872 35.2061 33.349 28.5263C35.4108 21.8437 34.6102 22.3971 34.6102 22.3971L17.9501 23.4449Z" fill="#9D7562"/>
<path d="M30.4384 30.0158C30.4384 30.0158 29.7839 36.631 30.8008 39.2237C31.5142 41.0439 35.2502 41.5776 37.3036 41.6928C39.517 41.8192 40.0676 42.4821 40.1912 46.4006C40.3008 49.9315 40.4075 51.0355 40.4075 51.0355L10.1631 50.2293C10.1631 50.2293 10.2165 44.2461 11.6912 42.4484C13.1659 40.6506 19.2502 43.7096 20.8457 38.6928C21.8345 35.586 21.6097 27.1562 21.6097 27.1562L30.4384 30.0158Z" fill="#EFC39F"/>
<path d="M10.046 47.743C10.046 47.743 22.5881 49.5661 29.4561 47.0801C36.3269 44.5941 35.9252 41.4088 35.9252 41.4088L37.3072 41.5211C37.3072 41.5211 41.192 41.4453 42.5094 45.3104C43.8269 49.1756 44.7426 50.8329 44.7426 50.8329L9.30438 51.4425L10.046 47.743Z" fill="#138B7E"/>
<path d="M19.0769 14.3134C19.0769 14.3134 16.9786 18.5465 18.046 26.2768C19.1134 34.01 20.2988 35.8134 20.2988 35.8134C20.2988 35.8134 16.0235 27.9735 16.4814 21.1617C16.9393 14.3499 19.0769 14.3134 19.0769 14.3134Z" fill="#663F30"/>
<path opacity="0.2" d="M21.5178 30.4762C21.5459 30.788 27.1161 38.0773 29.2537 39.4762C31.3914 40.8751 32.2734 40.4116 32.2734 40.4116C32.2734 40.4116 30.0936 40.656 30.1695 34.3217C30.2453 27.9902 30.72 27.6223 30.72 27.6223L21.5178 30.4762Z" fill="#B1836E"/>
<path d="M36.2066 19.7734C35.6448 19.8043 35.2656 20.2987 35.0493 20.7229C35.2572 17.0122 34.5212 13.56 34.5212 13.56C32.8414 8.40547 21.3948 8.40547 19.1785 11.942C18.4173 13.1583 17.7515 17.0319 17.7543 20.2257C17.51 19.8942 17.1645 19.5965 16.7178 19.5881C15.7684 19.5684 16.6897 22.0291 17.2263 23.7425C17.5465 24.7706 17.9959 25.4925 18.3751 25.8268C18.5942 26.0234 18.7937 26.0852 18.9257 25.9982C20.5633 30.206 23.4425 34.4448 26.0886 34.3409C29.1701 34.2201 32.4397 30.3296 34.1785 25.2706C34.1476 25.6807 34.1588 25.9785 34.2347 26.06C34.5661 26.4027 35.4032 25.5319 35.8611 23.8437C36.3246 22.1498 37.1308 19.7229 36.2066 19.7734Z" fill="#EFC39F"/>
<path d="M18.2179 28.3948C18.2179 28.3948 17.5128 31.0437 17.2066 34.4313C16.9004 37.819 15.8611 50.8892 16.0521 50.8892C16.2431 50.8892 20.937 51.3302 20.937 51.3302C20.937 51.3302 20.9679 41.0577 20.0886 34.6167C19.2094 28.1757 18.2179 28.3948 18.2179 28.3948Z" fill="#663F30"/>
<path d="M37.8712 49.7117L37.8179 49.7173C37.86 49.7454 37.8712 49.7117 37.8712 49.7117Z" fill="#8D522B"/>
<path d="M36.0403 45.0713C34.3802 39.8803 35.1246 28.0628 35.1246 28.0628C35.1246 28.0628 34.1302 25.0319 32.6133 31.5965C31.0965 38.1696 32.0824 50.7426 32.0824 50.7426H34.0656C34.0656 50.7426 34.383 48.7904 34.0375 45.2005C34.0291 45.1218 34.0235 45.0404 34.015 44.9589C34.6442 47.8831 34.9813 50.7426 34.9813 50.7426H37.7285C37.6021 50.6555 37.2875 48.9729 36.0403 45.0713Z" fill="#663F30"/>
<path d="M29.0375 17.8832C37.7285 23.9337 36.7847 25.6135 35.3718 29.0012C35.3718 29.0012 41.0853 24.8214 38.5769 16.4478C37.178 11.7792 28.6302 5.04329 21.2454 8.63037C21.2398 8.63318 21.2398 8.64441 21.2398 8.65565C19.383 9.29048 15.5179 11.7062 15.1078 16.2961C14.7538 20.2596 15.8718 25.2849 15.8718 25.2849C15.8718 25.2849 17.046 33.6641 17.046 28.7287C17.046 16.8719 21.3353 12.6332 21.9308 11.2034C22.6162 16.695 29.1724 18.8719 29.1724 18.8719C29.1724 18.8719 25.8999 16.2849 25.3634 13.5405C26.5684 15.2427 26.737 16.2821 29.0375 17.8832Z" fill="#663F30"/>
</g>
</g>
</svg>
