<svg xmlns="http://www.w3.org/2000/svg" width="30" height="27" fill="none" viewBox="0 0 30 27">
    <path fill="#fff" d="M15 0C6.73 0 0 5.843 0 13.026c0 2.944 1.133 5.77 3.212 8.04l-2.985 3.45a.92.92 0 0 0-.14.993.936.936 0 0 0 .85.544H15c8.27 0 15-5.844 15-13.027C30 5.843 23.27 0 15 0zM7.5 14.887a1.869 1.869 0 0 1-1.875-1.86c0-1.028.84-1.862 1.875-1.862 1.035 0 1.875.834 1.875 1.861 0 1.027-.84 1.861-1.875 1.861zm7.5 0a1.869 1.869 0 0 1-1.875-1.86c0-1.028.84-1.862 1.875-1.862 1.035 0 1.875.834 1.875 1.861 0 1.027-.84 1.861-1.875 1.861zm7.5 0a1.869 1.869 0 0 1-1.875-1.86c0-1.028.84-1.862 1.875-1.862 1.035 0 1.875.834 1.875 1.861 0 1.027-.84 1.861-1.875 1.861z"/>
</svg>
