<svg xmlns="http://www.w3.org/2000/svg" width="19" height="19" fill="none" viewBox="0 0 19 19">
    <path fill="#fff" stroke="#fff" stroke-width=".2" d="M18.562 17.002L11.06 9.5l7.47-7.503c.442-.442.447-1.149-.002-1.562-.442-.44-1.147-.445-1.56.003L9.5 7.94 1.997.437C1.555-.005.848-.011.435.438c-.44.442-.445 1.148.003 1.56L7.906 9.5l-7.47 7.503c-.441.442-.447 1.149.002 1.562.221.22.516.332.779.332s.558-.112.78-.334L9.5 11.06l7.503 7.503c.222.222.517.334.78.334s.559-.112.78-.334c.442-.441.448-1.148-.001-1.561z"/>
</svg>
