<svg xmlns="http://www.w3.org/2000/svg" width="51" height="48" fill="none" viewBox="0 0 51 48">
    <circle cx="18.5" cy="18.5" r="18.5" fill="#02C8B2" fill-opacity=".42"/>
    <ellipse cx="28.5" cy="25" fill="#138B7E" rx="22.5" ry="23"/>
    <path fill="#fff" d="M35.779 19.295h-2.632v-2.19A2.112 2.112 0 0 0 31.042 15h-4.084a2.112 2.112 0 0 0-2.105 2.105v2.169H22.22A3.235 3.235 0 0 0 19 22.494v8.422a3.235 3.235 0 0 0 3.221 3.22H35.78A3.235 3.235 0 0 0 39 30.917v-8.421c0-1.769-1.453-3.2-3.221-3.2zm-8.947-2.19c0-.063.063-.126.126-.126h4.063c.063 0 .126.063.126.126v2.169h-4.315v-2.169zm5.936 10.927h-2.442v2.463h-2.652v-2.463h-2.442V25.4h2.463v-2.463h2.631V25.4h2.463v2.632h-.02z"/>
</svg>
