<svg xmlns="http://www.w3.org/2000/svg" width="35" height="35" fill="none" viewBox="0 0 35 35">
    <g fill="#000" clip-path="url(#clip0)">
        <path d="M17.253 34.5C7.74 34.5 0 26.76 0 17.253 0 7.74 7.74 0 17.253 0c9.514 0 17.254 7.74 17.254 17.253C34.5 26.76 26.76 34.5 17.254 34.5zm0-32.268c-8.284 0-15.021 6.737-15.021 15.021 0 8.285 6.737 15.015 15.015 15.015 8.277 0 15.014-6.737 15.014-15.015.007-8.284-6.73-15.021-15.008-15.021z"/>
        <path d="M25.057 16.173c1.451 0 2.628-1.325 2.628-2.96 0-1.634-1.177-2.958-2.628-2.958-1.45 0-2.627 1.324-2.627 2.959 0 1.634 1.176 2.959 2.627 2.959zM9.443 16.173c1.45 0 2.627-1.325 2.627-2.96 0-1.634-1.176-2.958-2.627-2.958-1.451 0-2.628 1.324-2.628 2.959 0 1.634 1.177 2.959 2.628 2.959zM23.807 27.099c-.557 0-1.087-.34-1.3-.89-.366-.94-2.026-3.376-5.254-3.376-3.227 0-4.887 2.436-5.254 3.376-.282.72-1.088 1.073-1.808.79-.72-.282-1.073-1.087-.79-1.807.698-1.78 3.234-5.156 7.86-5.156 4.618 0 7.16 3.369 7.86 5.156.283.72-.07 1.525-.791 1.808-.184.07-.353.099-.523.099z"/>
    </g>
    <defs>
        <clipPath id="clip0">
            <path fill="#fff" d="M0 0H34.5V34.5H0z"/>
        </clipPath>
    </defs>
</svg>
