<svg xmlns="http://www.w3.org/2000/svg" width="34" height="34" fill="none" viewBox="0 0 34 34">
    <path fill="#000" d="M17 33.993C7.627 33.993 0 26.366 0 17 0 7.627 7.627 0 17 0c9.373 0 17 7.627 17 17-.007 9.366-7.634 16.993-17 16.993zm0-31.794C8.837 2.199 2.199 8.837 2.199 17s6.638 14.794 14.794 14.794S31.787 25.155 31.787 17C31.794 8.837 25.156 2.199 17 2.199z"/>
    <path fill="#000" d="M24.686 15.935c1.43 0 2.589-1.305 2.589-2.915s-1.16-2.916-2.589-2.916c-1.43 0-2.588 1.306-2.588 2.916 0 1.61 1.159 2.915 2.588 2.915zM9.308 15.935c1.43 0 2.588-1.305 2.588-2.915s-1.159-2.916-2.588-2.916c-1.43 0-2.589 1.305-2.589 2.916 0 1.61 1.16 2.915 2.589 2.915zM21.856 24.706h-9.7c-.759 0-1.378-.612-1.378-1.378 0-.758.612-1.378 1.378-1.378h9.7c.758 0 1.378.613 1.378 1.378-.007.759-.62 1.378-1.378 1.378z"/>
</svg>
