<svg xmlns="http://www.w3.org/2000/svg" width="34" height="34" fill="none" viewBox="0 0 34 34">
    <path fill="#000" d="M24.69 15.936c1.43 0 2.588-1.306 2.588-2.916 0-1.61-1.159-2.916-2.588-2.916-1.43 0-2.589 1.306-2.589 2.916 0 1.61 1.159 2.916 2.589 2.916zM9.304 15.935c1.43 0 2.589-1.305 2.589-2.915s-1.16-2.916-2.59-2.916c-1.429 0-2.588 1.305-2.588 2.916 0 1.61 1.16 2.915 2.589 2.915z"/>
    <path fill="#000" d="M17 33.993C7.627 33.993 0 26.366 0 17 0 7.627 7.627 0 17 0c9.373 0 17 7.627 17 17-.007 9.366-7.634 16.993-17 16.993zm0-31.794C8.837 2.199 2.199 8.837 2.199 17s6.638 14.794 14.794 14.794c8.163 0 14.794-6.639 14.794-14.794C31.794 8.837 25.156 2.199 17 2.199z"/>
    <path fill="#000" d="M17 26.011c-.48 0-1.754-.048-3.166-.528-1.503-.508-2.672-1.33-3.466-2.429-.445-.62-.306-1.475.314-1.92.619-.446 1.475-.307 1.92.313 1.037 1.433 3.257 1.816 4.405 1.816 1.148 0 3.284-.508 4.467-1.9.495-.578 1.357-.647 1.942-.16.578.494.647 1.357.16 1.942-1.934 2.261-5.045 2.866-6.576 2.866z"/>
</svg>
