<svg xmlns="http://www.w3.org/2000/svg" width="34" height="34" fill="none" viewBox="0 0 34 34">
    <path fill="#000" d="M17 33.993C7.627 33.993 0 26.366 0 17 0 7.627 7.627 0 17 0c9.373 0 17 7.627 17 17-.007 9.366-7.634 16.993-17 16.993zm0-31.794C8.837 2.199 2.199 8.837 2.199 17s6.638 14.794 14.794 14.794c8.163 0 14.794-6.639 14.794-14.794C31.794 8.837 25.156 2.199 17 2.199z"/>
    <path fill="#000" d="M24.69 15.936c1.43 0 2.588-1.306 2.588-2.916 0-1.61-1.159-2.916-2.588-2.916-1.43 0-2.589 1.306-2.589 2.916 0 1.61 1.159 2.916 2.589 2.916zM9.304 15.935c1.43 0 2.589-1.305 2.589-2.915s-1.16-2.916-2.59-2.916c-1.429 0-2.588 1.305-2.588 2.916 0 1.61 1.16 2.915 2.589 2.915zM17 27.174c-4.55 0-7.056-3.32-7.745-5.08-.278-.71.07-1.503.78-1.782.71-.278 1.502.07 1.78.78.363.925 1.998 3.326 5.178 3.326 3.18 0 4.816-2.4 5.177-3.326.279-.71 1.072-1.058 1.782-.78.71.279 1.057 1.072.78 1.782-.683 1.753-3.181 5.08-7.732 5.08z"/>
</svg>
