<svg xmlns="http://www.w3.org/2000/svg" width="32" height="32" fill="none" viewBox="0 0 32 32">
    <path fill="#FFDD24" d="M1.1 21.82c-3.214-8.228.85-17.504 9.079-20.719 8.228-3.214 17.505.85 20.72 9.078 3.214 8.228-.85 17.504-9.078 20.719-8.229 3.214-17.506-.85-20.72-9.078z"/>
    <path fill="#C8AC13" fill-rule="evenodd" d="M26.824 18.949c-1.881 3.677-5.7 6.197-10.11 6.197a11.34 11.34 0 0 1-10.112-6.192h20.222v-.005z" clip-rule="evenodd"/>
    <path fill="url(#a)" d="M25.945 19.467s-.202.508-.644.966c-1.947.458-5.262 1.096-8.577 1.096-3.31 0-6.615-.633-8.567-1.091-.367-.372-.674-.97-.674-.97h18.462z"/>
    <path fill="#C8AC13" fill-rule="evenodd" d="M12.585 8.628c1.142 0 2.063 1.388 2.063 3.098s-.926 3.099-2.063 3.099c-1.141 0-2.062-1.389-2.062-3.099 0-1.71.92-3.098 2.062-3.098zm8.26 0c1.142 0 2.063 1.388 2.063 3.098s-.926 3.099-2.063 3.099c-1.142 0-2.062-1.389-2.062-3.099-.005-1.71.92-3.098 2.062-3.098z" clip-rule="evenodd"/>
    <defs>
        <linearGradient id="a" x1="25.942" x2="7.478" y1="20.499" y2="20.499" gradientUnits="userSpaceOnUse">
            <stop offset=".05" stop-color="#C8AC13"/>
            <stop offset=".3" stop-color="#fff"/>
            <stop offset=".7" stop-color="#fff"/>
            <stop offset=".95" stop-color="#C8AC13"/>
        </linearGradient>
    </defs>
</svg>
