<svg xmlns="http://www.w3.org/2000/svg" width="23" height="24" fill="none" viewBox="0 0 23 24">
    <path fill="#fff" d="M17.716 6.213A6.205 6.205 0 0 0 11.503 0a6.205 6.205 0 0 0-6.212 6.213c0 3.007 4.791 9.98 6.212 11.995 1.421-2.015 6.213-8.988 6.213-11.995zm-6.907 4.031C9.124 9.98 7.736 8.592 7.472 6.907a4.09 4.09 0 0 1 .925-3.338 4.13 4.13 0 0 1 3.8-1.388c1.686.264 3.074 1.652 3.338 3.338a4.09 4.09 0 0 1-.925 3.337c-.793.926-1.917 1.454-3.107 1.454-.231-.033-.462-.033-.694-.066z"/>
    <path fill="#fff" d="M14.309 15.864c-1.256 1.916-2.28 3.37-2.412 3.502l-.397.53-.397-.53a87.092 87.092 0 0 1-2.412-3.502C3.734 16.326 0 17.977 0 19.762c0 1.884 4.726 3.998 11.5 3.998S23 21.648 23 19.764c0-1.818-3.734-3.47-8.691-3.9zM13.483 5.607h-1.485V4.13h-1.09v1.476H9.434v1.089h1.476V8.18h1.089V6.696h1.485v-1.09z"/>
</svg>
