<svg xmlns="http://www.w3.org/2000/svg" width="51" height="48" fill="none" viewBox="0 0 51 48">
    <circle cx="18.5" cy="18.5" r="18.5" fill="#02C8B2" fill-opacity=".42"/>
    <ellipse cx="28.5" cy="25" fill="#138B7E" rx="22.5" ry="23"/>
    <path fill="#fff" d="M33.084 15.237l-2.826 4.251 3.835-1.162-3.53 7.307 1.401-5.501-3.731 1.046 2.656-5.635a8.354 8.354 0 0 1-1.888.225c-1.962.069-3.17-.776-4.524-.768a3.004 3.004 0 0 0-.59.065c-1.615.33-2.757 1.632-2.865 3.021-.205 2.662 1.059 5.356 1.393 7.782.335 2.426.099 2.754.481 5.673.396 2.948 1.216 4.515 2.42 4.31 1.204-.203 1.356-3.716 1.73-5.882.16-1.264.765-2.73 1.954-2.732 1.188.002 1.793 1.468 1.953 2.732.374 2.167.534 5.679 1.738 5.883 1.204.204 2.017-1.362 2.413-4.311.382-2.919.146-3.246.48-5.673.336-2.426 1.6-5.12 1.393-7.782-.107-1.39-1.041-2.775-2.548-2.963-.825-.103-.996-.012-1.345.114"/>
</svg>
