<svg xmlns="http://www.w3.org/2000/svg" width="19" height="21" fill="none" viewBox="0 0 19 21">
    <path fill="#fff" d="M17.322 6.79a1.168 1.168 0 0 0-1.569-.397c-.552.331-.707 1.038-.375 1.59a7.003 7.003 0 0 1 .994 4.374c-.331 3.402-3.137 6.097-6.539 6.34-4.13.287-7.576-3.026-7.532-7.091.044-3.777 3.137-6.914 6.914-6.98h.044v1.679c0 .485.53.795.95.53l4.528-2.828a.62.62 0 0 0 0-1.06L10.231.097a.62.62 0 0 0-.95.53v1.701C3.913 2.373-.372 6.923.026 12.38c.33 4.573 4.02 8.262 8.592 8.593 5.479.42 10.051-3.932 10.051-9.322a9.138 9.138 0 0 0-1.347-4.86z"/>
</svg>
