<svg xmlns="http://www.w3.org/2000/svg" width="22" height="21" fill="none" viewBox="0 0 22 21">
    <path fill="#fff" d="M19.843 1.898h-.251V3.15a.645.645 0 0 1-1.289 0V1.898h-1.89V3.15a.645.645 0 0 1-1.289 0V1.898h-1.89V3.15a.645.645 0 0 1-1.289 0V1.898h-1.89V3.15a.645.645 0 0 1-1.29 0V1.898h-1.89V3.15a.644.644 0 1 1-1.288 0V1.898h-1.89V3.15a.644.644 0 1 1-1.289 0V1.898h-.252A2.159 2.159 0 0 0 0 4.055v1.28h22v-1.28a2.16 2.16 0 0 0-2.157-2.157zM10.356 14.718v2.074h1.284v-2.074c0-.356.288-.645.644-.645h2.074V12.79h-2.074a.644.644 0 0 1-.644-.644V10.07h-1.284v2.075a.645.645 0 0 1-.644.644H7.637v1.283h2.075c.356 0 .644.289.644.645z"/>
    <path fill="#fff" d="M0 18.087c0 1.19.967 2.157 2.156 2.157h17.687A2.159 2.159 0 0 0 22 18.087V6.625H0v11.462zm6.35-5.939c0-.356.29-.644.645-.644h2.074V9.43c0-.357.289-.645.645-.645h2.572c.356 0 .645.288.645.645v2.074h2.074c.355 0 .644.288.644.644v2.572a.644.644 0 0 1-.644.645H12.93v2.074a.644.644 0 0 1-.644.645H9.713a.644.644 0 0 1-.645-.645v-2.074H6.995a.644.644 0 0 1-.645-.645v-2.572zM10.055.645a.645.645 0 0 0-1.29 0v1.252h1.29V.645zM6.877.645a.644.644 0 1 0-1.29 0v1.252h1.29V.645zM3.697.645a.644.644 0 1 0-1.289 0v1.252h1.29V.645zM19.592.645a.645.645 0 0 0-1.29 0v1.252h1.29V.645zM16.412.645a.645.645 0 0 0-1.289 0v1.252h1.29V.645zM13.234.645a.645.645 0 0 0-1.289 0v1.252h1.29V.645z"/>
</svg>
