<svg xmlns="http://www.w3.org/2000/svg" width="51" height="48" fill="none" viewBox="0 0 51 48">
    <circle cx="18.5" cy="18.5" r="18.5" fill="#02C8B2" fill-opacity=".42"/>
    <ellipse cx="28.5" cy="25" fill="#138B7E" rx="22.5" ry="23"/>
    <path fill="#fff" stroke="#fff" stroke-width=".2" d="M37.226 28.675c-.723 0-1.306.598-1.306 1.33 0 .733.584 1.329 1.308 1.329a1.319 1.319 0 0 0 1.305-1.33c0-.732-.584-1.33-1.307-1.329zm0 0v.1-.1z"/>
    <path fill="#fff" stroke="#fff" stroke-width=".2" d="M24.553 12.919c-.723 0-1.305.597-1.305 1.33 0 .732.583 1.329 1.307 1.329.41-.001.759-.206.993-.502.5.184.938.479 1.257.977.334.523.544 1.281.544 2.397 0 1.462-.322 3.114-.85 4.61-.873.748-2.287 1.2-3.793 1.2-1.506 0-2.917-.452-3.79-1.198-.529-1.497-.851-3.15-.851-4.612 0-1.116.21-1.874.544-2.397.32-.5.758-.794 1.259-.978.235.287.578.483.98.483.723 0 1.307-.598 1.307-1.329 0-.732-.584-1.329-1.306-1.329-.623 0-1.117.45-1.25 1.034-.9.311-1.575.827-2.023 1.569-.457.754-.676 1.733-.676 2.947 0 1.937.559 4.364 1.497 6.378.47 1.008 1.035 1.916 1.677 2.609.62.668 1.315 1.141 2.067 1.303v4.113c0 2.365 1.871 4.292 4.198 4.292 2.293 0 4.161-1.873 4.214-4.192h.005v-6.869c0-1.747 1.319-3.11 2.997-3.11 1.703 0 3.09 1.395 3.09 3.11v1.054c-1.308.276-2.292 1.457-2.292 2.866 0 1.613 1.287 2.927 2.874 2.927 1.586 0 2.873-1.314 2.873-2.927 0-1.409-.984-2.59-2.29-2.866v-1.054c0-2.366-1.908-4.292-4.255-4.292-2.298 0-4.162 1.928-4.162 4.292v6.669h-.004v.1c0 1.716-1.37 3.11-3.05 3.11-1.679 0-3.032-1.393-3.033-3.109v-4.118c.747-.17 1.439-.648 2.054-1.319.638-.695 1.2-1.603 1.667-2.608.932-2.01 1.487-4.429 1.487-6.36 0-1.217-.22-2.198-.68-2.954-.451-.743-1.13-1.26-2.037-1.568-.142-.572-.63-1.009-1.244-1.008zm0 0v.1-.1zm-3.495 13.88c-.487-.48-.947-1.141-1.354-1.914 1.787.718 4.22.718 6.006 0-.407.772-.866 1.434-1.353 1.914-.538.532-1.099.831-1.65.831-.55 0-1.11-.3-1.65-.83zm16.169 4.95c-.94 0-1.71-.782-1.71-1.745 0-.962.77-1.742 1.71-1.742s1.708.78 1.708 1.742c0 .963-.768 1.744-1.708 1.744z"/>
</svg>
