<svg xmlns="http://www.w3.org/2000/svg" width="15" height="15" fill="none" viewBox="0 0 15 15">
    <path fill="#fff" d="M6.346 0H.576A.577.577 0 0 0 0 .577v5.77c0 .318.258.576.577.576h5.77a.577.577 0 0 0 .576-.577V.576A.577.577 0 0 0 6.346 0zM14.422 0h-5.77a.577.577 0 0 0-.576.577v5.77c0 .318.258.576.577.576h5.769a.577.577 0 0 0 .577-.577V.576A.577.577 0 0 0 14.422 0zM6.346 8.077H.576A.577.577 0 0 0 0 8.654v5.77c0 .318.258.576.577.576h5.77a.577.577 0 0 0 .576-.577v-5.77a.577.577 0 0 0-.577-.576zM14.422 8.077h-5.77a.577.577 0 0 0-.576.577v5.77c0 .318.258.576.577.576h5.769a.577.577 0 0 0 .577-.577v-5.77a.577.577 0 0 0-.577-.576z"/>
</svg>
