<svg xmlns="http://www.w3.org/2000/svg" width="22" height="26" fill="none" viewBox="0 0 22 26">
    <path fill="#fff" d="M12.515 11.94h2.44v1.511h-2.44c-.42 0-.759.34-.759.76v2.44h-1.51v-2.44a.759.759 0 0 0-.76-.76h-2.44v-1.51h2.44c.42 0 .76-.34.76-.759V8.741h1.51v2.441c0 .42.34.759.759.759z"/>
    <path fill="#fff" d="M21.974 7.024V7c-.013-.645-.024-1.255-.024-1.842 0-.889-.723-1.611-1.612-1.611-3.44 0-6.05-.981-8.215-3.087a1.604 1.604 0 0 0-2.247 0C7.71 2.565 5.1 3.546 1.662 3.546.774 3.546.05 4.268.05 5.157c0 .6-.011 1.215-.024 1.868-.058 3.044-.13 6.833 1.141 10.273.7 1.892 1.758 3.535 3.147 4.885 1.582 1.538 3.653 2.758 6.158 3.626a1.607 1.607 0 0 0 1.056 0c2.503-.868 4.576-2.088 6.158-3.626 1.389-1.35 2.447-2.994 3.146-4.885 1.273-3.44 1.2-7.23 1.142-10.274zm-5.502 7.187c0 .419-.339.759-.758.759h-2.441v2.44c0 .42-.34.76-.759.76H9.486a.759.759 0 0 1-.758-.76v-2.44H6.286a.759.759 0 0 1-.758-.759v-3.028c0-.419.339-.759.758-.759h2.442V7.983c0-.419.34-.759.758-.759h3.028c.419 0 .759.34.759.759v2.441h2.44c.42 0 .76.34.76.759v3.028z"/>
</svg>
