<svg xmlns="http://www.w3.org/2000/svg" width="20" height="20" fill="none" viewBox="0 0 20 20">
    <path fill="#fff" d="M15.952 14.926a2.732 2.732 0 0 1-2.73 2.73h-.587a1.761 1.761 0 0 0-1.658-1.173H9.022a1.76 1.76 0 0 0-1.758 1.758c0 .97.788 1.759 1.758 1.759h1.955c.764 0 1.416-.49 1.658-1.173h.588a3.905 3.905 0 0 0 3.9-3.9v-.041h-1.171v.04zM17.639 7.069a7.656 7.656 0 0 0-15.266 0h2.354a5.319 5.319 0 0 1 5.279-4.725 5.319 5.319 0 0 1 5.278 4.725h2.354zM0 9.434v3.086c0 .66.534 1.194 1.194 1.194h3.495V8.24H1.194C.534 8.24 0 8.775 0 9.434zM18.806 8.24H15.31l.054 5.474h3.442c.66 0 1.194-.534 1.194-1.194V9.434c0-.659-.535-1.193-1.194-1.193z"/>
</svg>
