<svg xmlns="http://www.w3.org/2000/svg" width="22" height="15" fill="none" viewBox="0 0 22 15">
    <path fill="#138b7e" d="M22 7.001c0 .265-.116.52-.322.707a1.158 1.158 0 0 1-.778.293H3.454l3.993 4.36a.976.976 0 0 1 .205.344.914.914 0 0 1-.077.763c-.068.116-.16.22-.271.303a1.17 1.17 0 0 1-.704.23c-.162 0-.321-.032-.468-.094a1.094 1.094 0 0 1-.379-.266l-5.5-6a1.173 1.173 0 0 1-.099-.15s0-.08-.077-.13A.921.921 0 0 1 0 7.001a.921.921 0 0 1 .077-.36c0-.05 0-.08.077-.13.029-.052.062-.102.099-.15l5.5-6c.187-.204.455-.332.746-.357.29-.024.58.058.805.227.225.17.366.414.393.678a.941.941 0 0 1-.25.732l-3.993 4.36H20.9c.292 0 .572.106.778.293a.956.956 0 0 1 .322.707z"/>
</svg>
