<svg xmlns="http://www.w3.org/2000/svg" width="51" height="48" fill="none" viewBox="0 0 51 48">
    <circle cx="18.5" cy="18.5" r="18.5" fill="#02C8B2" fill-opacity=".42"/>
    <ellipse cx="28.5" cy="25" fill="#138B7E" rx="22.5" ry="23"/>
    <path fill="#fff" stroke="#fff" stroke-width=".2" d="M37.346 28.99c-.694 0-1.253.574-1.253 1.275 0 .704.56 1.276 1.255 1.276a1.266 1.266 0 0 0 1.253-1.277c0-.702-.56-1.276-1.255-1.274zm0 0v.1-.1z"/>
    <path fill="#fff" stroke="#fff" stroke-width=".2" d="M25.225 13.918c-.694 0-1.253.573-1.253 1.276 0 .703.56 1.276 1.255 1.276.393 0 .726-.197.95-.48.478.177.894.458 1.198.933.32.499.52 1.224.52 2.29 0 1.398-.308 2.976-.813 4.408-.834.713-2.184 1.145-3.624 1.145s-2.788-.432-3.622-1.144c-.505-1.432-.813-3.01-.813-4.41 0-1.066.2-1.79.52-2.29.304-.475.722-.756 1.199-.932.226.274.553.461.94.461.693 0 1.253-.573 1.253-1.275 0-.703-.56-1.276-1.254-1.276-.597 0-1.07.43-1.198.99-.862.298-1.507.792-1.936 1.502-.438.722-.647 1.66-.647 2.82 0 1.854.535 4.177 1.433 6.104.449.964.99 1.833 1.605 2.496.591.639 1.256 1.092 1.975 1.248V32.99c0 2.264 1.792 4.11 4.02 4.11 2.194 0 3.982-1.791 4.035-4.01h.005V26.515c0-1.67 1.26-2.97 2.862-2.97 1.626 0 2.95 1.332 2.95 2.97v1.005c-1.25.265-2.191 1.396-2.191 2.745 0 1.545 1.233 2.804 2.753 2.804s2.753-1.26 2.753-2.804c0-1.349-.94-2.48-2.191-2.745v-1.005c0-2.265-1.826-4.11-4.074-4.11-2.2 0-3.985 1.847-3.985 4.11v6.375h-.004v.1c0 1.639-1.309 2.97-2.913 2.97-1.603 0-2.896-1.33-2.897-2.97v-3.935c.715-.163 1.376-.62 1.964-1.261.61-.666 1.148-1.535 1.595-2.497.891-1.924 1.422-4.237 1.422-6.084 0-1.165-.21-2.105-.65-2.829-.432-.71-1.081-1.205-1.949-1.501-.136-.547-.604-.966-1.193-.965zm0 0v.1-.1zm-3.34 13.278c-.463-.456-.9-1.085-1.289-1.82 1.705.682 4.02.682 5.726 0-.387.735-.825 1.363-1.288 1.82-.514.508-1.05.794-1.575.794-.525 0-1.06-.286-1.575-.794zm15.462 4.733c-.897 0-1.63-.745-1.63-1.664 0-.918.733-1.663 1.63-1.663.897 0 1.63.745 1.63 1.663 0 .919-.733 1.664-1.63 1.664z"/>
</svg>
