<svg xmlns="http://www.w3.org/2000/svg" width="14" height="15" fill="none" viewBox="0 0 14 15">
    <path fill="#fff" d="M13.256 12.58a1.129 1.129 0 0 1-.143.294 8.925 8.925 0 0 1-1.634 1.776 4.95 4.95 0 0 1-.568.35l-.426-.011c-.202-.05-.408-.095-.605-.154a8.071 8.071 0 0 1-2.47-1.316c-1.288-.957-2.412-2.11-3.478-3.34a23.204 23.204 0 0 1-2.617-3.595C.793 5.677.348 4.734.125 3.678.068 3.418.04 3.152 0 2.895l.018-.469c.234-.562.638-.973 1.06-1.367.312-.287.63-.556.956-.823.134-.11.29-.185.455-.218a.969.969 0 0 1 .494.032.724.724 0 0 1 .445.35c.524.93 1.04 1.865 1.586 2.775.114.18.177.391.184.61.007.219-.044.436-.146.628-.097.21-.217.41-.33.614-.13.236-.261.473-.401.704a.186.186 0 0 0 .002.24c.379.51.735 1.04 1.136 1.533a20.39 20.39 0 0 0 2.412 2.591.212.212 0 0 0 .14.073.211.211 0 0 0 .151-.045c.367-.22.74-.43 1.115-.635.264-.165.574-.216.869-.145.09.024.174.066.25.122.878.666 1.754 1.334 2.628 2.005.282.212.378.683.232 1.11z"/>
</svg>
