<svg xmlns="http://www.w3.org/2000/svg" width="32" height="32" fill="none" viewBox="0 0 32 32">
    <path fill="#FDD7AD" d="M25.712 25.595l-5.014 3.536-3.013 2.118a1.227 1.227 0 0 1-1.707-.3l-1.088-1.535a1.19 1.19 0 0 0-.826-.507c-2.795-.38-4.683-3.062-4.683-3.062L.901 13.808a1.911 1.911 0 0 1 .289-2.576 1.845 1.845 0 0 1 2.66.373l-.532-.757L1.68 8.523l-.597-.843a1.84 1.84 0 0 1 .448-2.565 1.836 1.836 0 0 1 2.56.442L2.683 3.552a1.84 1.84 0 1 1 3.008-2.117L7.105 3.44a1.839 1.839 0 1 1 3.008-2.117l2.229 3.168 4.48 6.357a7.454 7.454 0 0 0 1.61 1.723 1.227 1.227 0 0 0 1.905-.624v-.005c-.032-1.003-.213-1.867-.235-2.65-.058-2.214-.303-4.48.7-5.19 1.002-.71 2.255.576 2.415 2.304.25 2.667 1.445 4.922 2.213 8.133.49 2.08.144 4.747-.16 6.373-.182.974.038 1.98.608 2.79l.128.186a1.219 1.219 0 0 1-.294 1.707z"/>
    <path fill="#CBB292" d="M19.629 18.145a.533.533 0 0 1-.824-.307 4.563 4.563 0 0 1 .405-3.29c.175-.332.608-1.091.706-1.28a5.902 5.902 0 0 0 .38-1.948c.259.568.416 1.177.467 1.8a6.597 6.597 0 0 1-.613 1.933 3.507 3.507 0 0 0-.311 2.529.533.533 0 0 1-.21.563z"/>
    <path fill="#FEE7CE" d="M10.988 23.86a.532.532 0 0 1-.747-.128l-2.12-3.01a.533.533 0 1 1 .872-.614l2.12 3.01c.17.24.115.572-.125.743zM13.607 26.518a.533.533 0 0 1-.398.089 2.405 2.405 0 0 1-1.553-.868.533.533 0 0 1 .867-.619c.229.244.536.4.868.439a.534.534 0 0 1 .216.96v-.001zm-1.079-1.393l.006-.005-.006.005zM23.6 24.735l-.502.353a.534.534 0 0 1-.614-.87l.501-.352a.533.533 0 1 1 .615.871v-.002zM21.095 26.497l-3.511 2.473a.533.533 0 1 1-.615-.872l3.511-2.473a.533.533 0 1 1 .614.872z"/>
    <path fill="#fff" d="M7.467 32A7.475 7.475 0 0 1 0 24.533a.533.533 0 1 1 1.067 0 6.407 6.407 0 0 0 6.4 6.4.533.533 0 1 1 0 1.067z" opacity=".4"/>
    <path fill="#fff" fill-opacity=".7" d="M7.999 29.868A5.874 5.874 0 0 1 2.132 24a.534.534 0 0 1 1.067 0 4.805 4.805 0 0 0 4.8 4.8.533.533 0 0 1 0 1.067z"/>
    <path fill="#fff" d="M31.467 8a.533.533 0 0 1-.534-.533 6.407 6.407 0 0 0-6.4-6.4.533.533 0 1 1 0-1.067A7.475 7.475 0 0 1 32 7.467a.533.533 0 0 1-.533.533z" opacity=".4"/>
    <path fill="#fff" fill-opacity=".7" d="M29.334 8.532A.533.533 0 0 1 28.801 8a4.805 4.805 0 0 0-4.8-4.8.534.534 0 0 1 0-1.067A5.874 5.874 0 0 1 29.868 8a.534.534 0 0 1-.534.533z"/>
    <path fill="#CBB292" d="M7.447 16.698a.534.534 0 0 1-.872.615l-3.598-5.099a1.845 1.845 0 0 0-2.073-.692c.083-.11.179-.21.286-.299.24-.191.524-.32.826-.373a1.843 1.843 0 0 1 1.833.751L7.447 16.7zM4.09 5.554l6.008 8.529a.533.533 0 1 1-.872.614L3.218 6.168a1.82 1.82 0 0 0-1.192-.753 1.865 1.865 0 0 0-.892.067c.116-.14.25-.266.397-.373.398-.28.89-.391 1.37-.31.481.082.91.354 1.19.755zM5.694 1.43l1.412 2.006 2.227 3.169 3.78 5.355a.533.533 0 0 1-.873.615L8.46 7.219 6.234 4.053 4.822 2.045a1.849 1.849 0 0 0-2.085-.69c.11-.144.242-.27.39-.374a1.848 1.848 0 0 1 2.567.45zM19.364 12.792a1.222 1.222 0 0 1-1.801.388 7.533 7.533 0 0 1-1.611-1.723L9.243 1.935a1.841 1.841 0 0 0-2.072-.7c.107-.141.236-.265.382-.366a1.834 1.834 0 0 1 2.56.451l6.71 9.524a7.557 7.557 0 0 0 1.61 1.722c.27.194.604.276.931.226z"/>
</svg>
