<svg xmlns="http://www.w3.org/2000/svg" width="23" height="23" fill="none" viewBox="0 0 23 23">
    <path fill="#fff" d="M23 11.5C23 5.159 17.841 0 11.5 0S0 5.159 0 11.5c0 2.067.55 4.079 1.595 5.845L.042 22.958l5.613-1.553A11.464 11.464 0 0 0 11.5 23C17.841 23 23 17.841 23 11.5zM9.735 8.824H7.971a3.533 3.533 0 0 1 3.529-3.53 3.533 3.533 0 0 1 3.53 3.53c0 .987-.419 1.937-1.148 2.604l-1.5 1.372v1.377h-1.764v-2.154l2.072-1.897c.37-.339.575-.801.575-1.302 0-.974-.792-1.765-1.765-1.765-.973 0-1.765.791-1.765 1.765zm.883 7.117h1.764v1.765h-1.764V15.94z"/>
</svg>
