<svg xmlns="http://www.w3.org/2000/svg" width="32" height="33" fill="none" viewBox="0 0 32 33">
    <path fill="#fff" d="M27.271 4.651A15.875 15.875 0 0 0 16 0C11.75 0 7.74 1.65 4.711 4.648 1.676 7.65.004 11.639 0 15.868v.007c0 2.559.673 5.14 1.949 7.496l-1.905 8.66 8.759-1.993a16.032 16.032 0 0 0 7.19 1.709H16c4.25 0 8.26-1.65 11.289-4.648 3.037-3.005 4.71-6.99 4.712-11.22.001-4.2-1.678-8.188-4.729-11.228zM16 29.247h-.005a13.512 13.512 0 0 1-6.423-1.628l-.414-.225-5.825 1.325 1.265-5.75-.244-.42c-1.212-2.092-1.853-4.4-1.853-6.677C2.505 8.502 8.56 2.5 15.999 2.5a13.392 13.392 0 0 1 9.508 3.922C28.083 8.99 29.5 12.348 29.5 15.88c-.003 7.37-6.06 13.368-13.5 13.368z"/>
    <path fill="#fff" d="M11.646 8.875h-.702c-.244 0-.64.091-.975.456-.336.365-1.281 1.248-1.281 3.043 0 1.794 1.311 3.528 1.494 3.772.183.243 2.532 4.044 6.251 5.506 3.092 1.215 3.721.973 4.392.912.671-.06 2.166-.882 2.47-1.733.305-.852.305-1.582.214-1.735-.091-.152-.336-.243-.701-.425-.367-.183-2.16-1.08-2.496-1.202-.335-.122-.58-.182-.823.183-.245.365-.963 1.208-1.177 1.452-.213.243-.427.274-.793.091-.366-.183-1.532-.575-2.93-1.817-1.089-.967-1.844-2.2-2.058-2.565-.213-.365-.022-.563.161-.745a11 11 0 0 0 .57-.6c.183-.212.235-.364.357-.608.122-.243.06-.456-.03-.638-.092-.183-.795-1.987-1.12-2.708-.274-.608-.563-.628-.823-.639z"/>
</svg>
