<svg width="55" height="57" fill="none" xmlns="http://www.w3.org/2000/svg">
    <g clip-path="url(#a)">
        <rect x=".445" width="53.729" height="55.861" rx="26.865" fill="#DADADA"/>
        <path d="M35.509 30.82c-2.252 1.78-4.726 2.876-8.199 2.876-3.475 0-5.95-1.096-8.2-2.875l-.735.734c1.678 2.56 4.765 5.31 8.935 5.31 4.17 0 7.255-2.75 8.933-5.31l-.734-.734zm-13.412-8.845a2.233 2.233 0 1 0 0 4.466 2.233 2.233 0 0 0 0-4.466zm10.423 0a2.233 2.233 0 1 0 0 4.466 2.233 2.233 0 0 0 0-4.466z" fill="#000"/>
    </g>
    <defs>
        <clipPath id="a">
            <path fill="#fff" d="M0 0h54.978v56.81H0z"/>
        </clipPath>
    </defs>
</svg>
