<svg width="55" height="56" fill="none" xmlns="http://www.w3.org/2000/svg">
    <g clip-path="url(#a)">
        <rect x="1.465" width="53.729" height="55.861" rx="26.865" fill="#DADADA"/>
        <path d="M28.33 30.909c-3.473 0-6.172 2.435-7.584 4.164l.701.864c1.915-1.22 4.068-1.948 6.883-1.948 2.814 0 4.967.728 6.882 1.948l.7-.864c-1.41-1.729-4.11-4.165-7.582-4.165zm-5.213-8.934a2.233 2.233 0 1 0 0 4.466 2.233 2.233 0 0 0 0-4.466zm10.422 0a2.233 2.233 0 1 0 0 4.466 2.233 2.233 0 0 0 0-4.466z" fill="#000"/>
    </g>
    <defs>
        <clipPath id="a">
            <path fill="#fff" transform="translate(.94)" d="M0 0h54.062v55.894H0z"/>
        </clipPath>
    </defs>
</svg>
