<svg xmlns="http://www.w3.org/2000/svg" width="11" height="18" fill="none" viewBox="0 0 11 18">
    <path fill="#333" d="M5.238 0C3.227 0 1.571 1.69 1.571 3.743c0 .995.399 1.904 1.048 2.577C1.016 7.39 0 9.22 0 11.23c0 3.24 2.588 5.881 5.762 5.881 1.844 0 3.667-.492 5.238-1.433l-1.048-1.85c-1.278.748-2.723 1.144-4.19 1.144-2.032 0-3.667-1.657-3.667-3.743 0-1.7 1.11-3.176 2.714-3.615l5.458-1.497-.545-2.064L5.06 5.347c-.786-.107-1.393-.77-1.393-1.604 0-.898.691-1.604 1.571-1.604.272 0 .524.075.786.214L7.07.503C6.516.17 5.877 0 5.238 0z"/>
</svg>
