<svg xmlns="http://www.w3.org/2000/svg" width="25" height="26" fill="none" viewBox="0 0 25 26">
    <path fill="#333" d="M24.07 3.774c-.055-.094-.13-.175-.222-.237-.091-.06-.195-.1-.304-.115-.108-.015-.22-.005-.323.029-.105.034-.2.092-.279.168l-2.966 2.948c-.398-.079-.764-.274-1.052-.561-.287-.288-.482-.654-.56-1.053l2.947-2.947c.075-.08.13-.177.162-.282.032-.105.04-.215.023-.324-.017-.108-.058-.211-.121-.301S21.23.934 21.134.88c-2.81-1.552-6.04-1.027-8.431 1.364-1.014 1.012-1.705 2.303-1.985 3.709-.279 1.405-.135 2.862.415 4.186L.78 20.495c-.52.574-.798 1.326-.778 2.1.02.774.336 1.51.884 2.057.548.547 1.285.862 2.06.88.773.02 1.524-.26 2.098-.78L15.589 14.22c1.384.436 2.867.447 4.257.03 1.39-.417 2.621-1.242 3.536-2.369.915-1.126 1.47-2.501 1.592-3.947.123-1.446-.192-2.895-.903-4.16zM21.9 11.37c-.794.803-1.807 1.356-2.912 1.59-1.106.235-2.256.141-3.308-.27-.132-.052-.275-.064-.413-.035-.139.029-.265.098-.365.197l-10.85 10.85c-.295.295-.694.46-1.11.46-.417 0-.817-.165-1.111-.46-.294-.294-.46-.693-.46-1.11 0-.416.166-.815.46-1.11l10.684-10.677c.108-.107.179-.247.203-.397.024-.151 0-.306-.07-.442-.427-.894-.625-1.88-.575-2.87.05-.99.346-1.952.861-2.798.516-.847 1.234-1.551 2.09-2.05.857-.499 1.824-.776 2.815-.806.58 0 1.158.097 1.707.285L17.097 4.18c-.07.071-.125.156-.161.25-.037.093-.053.193-.048.293.041.87.405 1.692 1.02 2.307s1.438.98 2.307 1.02c.1.005.2-.011.293-.047.094-.037.179-.092.25-.162l2.455-2.456c.385 1.022.465 2.134.229 3.2-.236 1.067-.776 2.042-1.556 2.807l.015-.021z"/>
</svg>
