<svg xmlns="http://www.w3.org/2000/svg" width="18" height="18" fill="none" viewBox="0 0 18 18">
    <path fill="#444" d="M16.945 10.274V1.617c0-.291-.236-.527-.527-.527h-2.672V.527c0-.29-.236-.527-.527-.527-.291 0-.528.236-.528.527v.563h-2.109V.527c0-.29-.236-.527-.527-.527-.292 0-.528.236-.528.527v.563H7.418V.527c0-.29-.236-.527-.527-.527-.292 0-.528.236-.528.527v.563h-2.11V.527c0-.29-.235-.527-.526-.527-.292 0-.528.236-.528.527v.563H.527c-.29 0-.527.236-.527.527v13.746c0 .292.236.528.527.528H9.31C10.162 17.16 11.612 18 13.254 18 15.87 18 18 15.87 18 13.254c0-1.128-.395-2.164-1.055-2.98zM3.2 2.144v.528c0 .291.236.527.528.527.29 0 .527-.236.527-.527v-.527h2.11v.527c0 .291.235.527.527.527.29 0 .527-.236.527-.527v-.527h2.11v.527c0 .291.235.527.527.527.291 0 .527-.236.527-.527v-.527h2.11v.527c0 .291.236.527.527.527.291 0 .527-.236.527-.527v-.527h2.145v2.109H1.055v-2.11h2.144zM1.055 14.837V5.309H15.89v4c-.755-.506-1.662-.801-2.637-.801-1.666 0-3.135.863-3.982 2.166-.071-.036-.151-.057-.237-.057H7.98c-.29 0-.527.236-.527.527 0 .292.236.528.527.528h.8c-.12.336-.202.689-.243 1.055H7.98c-.29 0-.527.236-.527.527 0 .291.236.527.527.527h.557c.04.366.123.719.242 1.055H1.055zm12.199 2.11c-2.036 0-3.691-1.657-3.691-3.692 0-2.036 1.655-3.691 3.69-3.691 2.036 0 3.692 1.655 3.692 3.69 0 2.036-1.656 3.692-3.691 3.692z"/>
    <path fill="#444" d="M15.363 12.727h-1.582v-1.582c0-.292-.236-.528-.527-.528-.291 0-.527.236-.527.527v2.11c0 .291.236.527.527.527h2.11c.29 0 .527-.236.527-.527 0-.291-.236-.527-.528-.527zM4.781 6.398H3.727c-.292 0-.528.237-.528.528 0 .291.236.527.528.527H4.78c.292 0 .528-.236.528-.527 0-.291-.236-.528-.528-.528zM4.781 8.508H3.727c-.292 0-.528.236-.528.527 0 .291.236.527.528.527H4.78c.292 0 .528-.236.528-.527 0-.291-.236-.527-.528-.527zM4.781 10.617H3.727c-.292 0-.528.236-.528.527 0 .292.236.528.528.528H4.78c.292 0 .528-.236.528-.527 0-.292-.236-.528-.528-.528zM7.98 7.453h1.055c.291 0 .527-.236.527-.527 0-.291-.236-.528-.527-.528H7.98c-.29 0-.527.237-.527.528 0 .291.236.527.527.527zM7.98 9.563h1.055c.291 0 .527-.237.527-.528 0-.291-.236-.527-.527-.527H7.98c-.29 0-.527.236-.527.527 0 .291.236.527.527.527zM4.781 12.727H3.727c-.292 0-.528.236-.528.527 0 .291.236.527.528.527H4.78c.292 0 .528-.236.528-.527 0-.291-.236-.527-.528-.527zM12.2 7.453h1.054c.291 0 .527-.236.527-.527 0-.291-.236-.528-.527-.528h-1.055c-.291 0-.527.237-.527.528 0 .291.236.527.527.527z"/>
</svg>
