<svg width="28" height="28" viewBox="0 0 28 28" fill="none" xmlns="http://www.w3.org/2000/svg">
<path fill-rule="evenodd" clip-rule="evenodd" d="M26.5667 1H5.76667C5.52736 1 5.33333 1.19402 5.33333 1.43333V4.9H1.43333C1.19402 4.9 1 5.09402 1 5.33333V20.5C1 20.7393 1.19402 20.9333 1.43333 20.9333H5.33333V26.5667C5.33328 26.7419 5.4388 26.8999 5.6007 26.9671C5.6533 26.989 5.70968 27.0002 5.76667 27C5.88161 27 5.99178 26.9543 6.07303 26.873L12.0127 20.9333H22.2333C22.4726 20.9333 22.6667 20.7393 22.6667 20.5V17.0333H26.5667C26.806 17.0333 27 16.8393 27 16.6V1.43333C27 1.19402 26.806 1 26.5667 1ZM21.8 20.0667H11.8333C11.7184 20.0667 11.6082 20.1124 11.527 20.1936L6.2 25.5206V20.5C6.2 20.2607 6.00598 20.0667 5.76667 20.0667H1.86667V5.76667H21.8V20.0667ZM26.1333 16.1667H22.6667V5.33333C22.6667 5.09402 22.4726 4.9 22.2333 4.9H6.2V1.86667H26.1333V16.1667ZM17 11H7V9.9H17V11ZM7 15H17V13.9H7V15Z" fill="#333333" stroke="#000033" stroke-width="0.3"/>
</svg>
