<svg width="34" height="26" viewBox="0 0 34 26" fill="none" xmlns="http://www.w3.org/2000/svg">
<mask id="path-1-outside-1" maskUnits="userSpaceOnUse" x="0" y="0" width="34" height="26" fill="black">
<rect fill="white" width="34" height="26"/>
<path d="M31.7393 8.39171C31.7393 8.39171 31.6288 8.18039 31.413 7.84426C31.383 7.79756 31.3514 7.75085 31.3206 7.70338L31.2875 7.65438C31.2492 7.59619 31.2123 7.538 31.1717 7.48057C31.162 7.46679 31.1507 7.45301 31.1401 7.43999C30.5643 6.61594 29.8909 5.86734 29.1352 5.21115C27.7106 3.96235 25.9372 2.92947 23.9812 2.21434C23.8564 2.16789 23.7311 2.12272 23.6053 2.07882C21.6652 1.41433 19.6376 1.05292 17.5913 1.00689H17.5867C17.3883 1 17.1988 1 17.0004 1C12.7597 1 8.76489 2.24114 5.75335 4.49372C2.68844 6.78688 1 9.85183 1 13.1258C1 16.3998 2.68844 19.4594 5.75335 21.7495C8.76564 24.002 12.7597 25.2424 17.0004 25.2424C19.5428 25.2424 22.0717 24.783 24.315 23.9071C26.4988 23.0565 28.4248 21.8145 29.8825 20.3169C29.9707 20.2276 30.0566 20.1372 30.1403 20.0459C31.295 18.7971 32.1122 17.4097 32.57 15.9189C32.8539 15.0168 32.9989 14.0754 33 13.1281C33.0015 11.4965 32.567 9.88169 31.7393 8.39171ZM17.0049 24.0962C8.79947 24.0962 2.12763 19.1745 2.12763 13.1258C2.12763 7.21565 8.48899 2.38279 16.423 2.15768C13.9279 5.47453 9.30314 11.8816 7.17643 16.471L7.16966 16.4863C7.14335 16.5483 6.52916 18.0176 7.28844 19.1998C7.83797 20.0543 8.91599 20.4877 10.4932 20.4877H26.4732C26.5231 20.4805 26.5737 20.4805 26.6236 20.4877H28.0091C25.2065 22.7663 21.2012 24.0962 17.0011 24.0962H17.0049ZM31.2153 16.35C31.2078 16.3692 31.1995 16.3883 31.1913 16.4074C31.1657 16.4679 31.1394 16.5276 31.1123 16.5881C31.1018 16.6126 31.0905 16.6364 31.0793 16.6609C31.0522 16.7198 31.0244 16.778 30.9966 16.8362L30.9672 16.8967C30.9289 16.9733 30.8921 17.0498 30.8485 17.1264L30.8364 17.1486C30.7996 17.2183 30.7613 17.2872 30.7222 17.3553C30.7101 17.3775 30.6974 17.399 30.6846 17.4204C30.6523 17.4771 30.6184 17.5337 30.5846 17.5896L30.5463 17.6532C30.5034 17.7228 30.4591 17.7918 30.414 17.8607C30.4111 17.866 30.4079 17.8712 30.4042 17.876C30.3546 17.9525 30.3042 18.0291 30.2538 18.1018L30.22 18.1501C30.1787 18.2083 30.1373 18.2665 30.0945 18.3239L30.0501 18.3844C30.006 18.4431 29.9609 18.502 29.9148 18.5612L29.8832 18.6018C29.8253 18.6784 29.7667 18.7481 29.7066 18.8208L29.6863 18.8438C29.6344 18.9066 29.581 18.9686 29.5261 19.0306C29.5096 19.0505 29.4923 19.0696 29.475 19.0888C29.4284 19.1416 29.381 19.1937 29.3329 19.2457L29.2803 19.3032L29.248 19.3369H26.6236C26.5737 19.344 26.5231 19.344 26.4732 19.3369H10.4962C9.69255 19.3369 8.64836 19.2044 8.24091 18.5712C7.83346 17.938 8.17927 17.0184 8.20784 16.9457C8.96861 15.3011 11.4216 10.5984 17.8393 2.16534H17.904L18.0348 2.17146L18.2731 2.18448L18.4062 2.19367C18.4904 2.19903 18.573 2.20592 18.6565 2.21204L18.7693 2.22123C18.8888 2.23195 19.0083 2.24267 19.1271 2.25569L19.1632 2.25952C19.2699 2.271 19.3774 2.28325 19.4842 2.29703L19.5999 2.31158C19.6811 2.3223 19.7623 2.33302 19.8428 2.34527L19.9691 2.36365C20.0495 2.37513 20.1292 2.38815 20.2089 2.40116L20.3246 2.4203C20.4231 2.43638 20.5208 2.45399 20.6178 2.47237L20.6742 2.48232C20.7922 2.50453 20.9088 2.52826 21.0253 2.55276L21.1065 2.56961L21.3733 2.62857L21.4823 2.6546C21.5635 2.67374 21.644 2.69288 21.7244 2.71355C21.7605 2.72198 21.7996 2.73116 21.8334 2.74112C21.9206 2.76332 22.0071 2.78629 22.0935 2.81003L22.1755 2.83223C22.2897 2.86362 22.401 2.89655 22.5175 2.93024L22.5453 2.93942C22.631 2.96469 22.716 2.99149 22.8017 3.01599C18.5648 7.91623 14.8894 12.6633 13.4649 14.5369C13.33 14.7145 13.247 14.9271 13.2252 15.1505C13.2034 15.3739 13.2437 15.599 13.3416 15.8002C13.4394 16.0014 13.5908 16.1704 13.7785 16.2881C13.9662 16.4058 14.1827 16.4673 14.4031 16.4656L31.2228 16.3224L31.2153 16.35ZM31.6085 15.1755L14.4 15.3225C14.39 15.3233 14.3799 15.3208 14.3713 15.3155C14.3626 15.3101 14.3559 15.3021 14.3519 15.2926C14.3475 15.2855 14.3456 15.2769 14.3467 15.2685C14.3478 15.2601 14.3518 15.2524 14.358 15.2467C15.8096 13.3394 19.6105 8.42693 23.9534 3.42868C25.6516 4.09404 27.1859 5.01054 28.4218 6.10391L28.4714 6.14755L28.5894 6.25628C29.1872 6.7994 29.7281 7.40419 30.2035 8.06094C30.2168 8.08925 30.2324 8.11639 30.2501 8.1421C30.3666 8.31055 30.4756 8.48129 30.5808 8.65204L30.5944 8.67424C31.4424 10.0754 31.8724 11.57 31.8724 13.1258C31.8717 13.8178 31.783 14.5067 31.6085 15.1755Z"/>
</mask>
<path d="M31.7393 8.39171C31.7393 8.39171 31.6288 8.18039 31.413 7.84426C31.383 7.79756 31.3514 7.75085 31.3206 7.70338L31.2875 7.65438C31.2492 7.59619 31.2123 7.538 31.1717 7.48057C31.162 7.46679 31.1507 7.45301 31.1401 7.43999C30.5643 6.61594 29.8909 5.86734 29.1352 5.21115C27.7106 3.96235 25.9372 2.92947 23.9812 2.21434C23.8564 2.16789 23.7311 2.12272 23.6053 2.07882C21.6652 1.41433 19.6376 1.05292 17.5913 1.00689H17.5867C17.3883 1 17.1988 1 17.0004 1C12.7597 1 8.76489 2.24114 5.75335 4.49372C2.68844 6.78688 1 9.85183 1 13.1258C1 16.3998 2.68844 19.4594 5.75335 21.7495C8.76564 24.002 12.7597 25.2424 17.0004 25.2424C19.5428 25.2424 22.0717 24.783 24.315 23.9071C26.4988 23.0565 28.4248 21.8145 29.8825 20.3169C29.9707 20.2276 30.0566 20.1372 30.1403 20.0459C31.295 18.7971 32.1122 17.4097 32.57 15.9189C32.8539 15.0168 32.9989 14.0754 33 13.1281C33.0015 11.4965 32.567 9.88169 31.7393 8.39171ZM17.0049 24.0962C8.79947 24.0962 2.12763 19.1745 2.12763 13.1258C2.12763 7.21565 8.48899 2.38279 16.423 2.15768C13.9279 5.47453 9.30314 11.8816 7.17643 16.471L7.16966 16.4863C7.14335 16.5483 6.52916 18.0176 7.28844 19.1998C7.83797 20.0543 8.91599 20.4877 10.4932 20.4877H26.4732C26.5231 20.4805 26.5737 20.4805 26.6236 20.4877H28.0091C25.2065 22.7663 21.2012 24.0962 17.0011 24.0962H17.0049ZM31.2153 16.35C31.2078 16.3692 31.1995 16.3883 31.1913 16.4074C31.1657 16.4679 31.1394 16.5276 31.1123 16.5881C31.1018 16.6126 31.0905 16.6364 31.0793 16.6609C31.0522 16.7198 31.0244 16.778 30.9966 16.8362L30.9672 16.8967C30.9289 16.9733 30.8921 17.0498 30.8485 17.1264L30.8364 17.1486C30.7996 17.2183 30.7613 17.2872 30.7222 17.3553C30.7101 17.3775 30.6974 17.399 30.6846 17.4204C30.6523 17.4771 30.6184 17.5337 30.5846 17.5896L30.5463 17.6532C30.5034 17.7228 30.4591 17.7918 30.414 17.8607C30.4111 17.866 30.4079 17.8712 30.4042 17.876C30.3546 17.9525 30.3042 18.0291 30.2538 18.1018L30.22 18.1501C30.1787 18.2083 30.1373 18.2665 30.0945 18.3239L30.0501 18.3844C30.006 18.4431 29.9609 18.502 29.9148 18.5612L29.8832 18.6018C29.8253 18.6784 29.7667 18.7481 29.7066 18.8208L29.6863 18.8438C29.6344 18.9066 29.581 18.9686 29.5261 19.0306C29.5096 19.0505 29.4923 19.0696 29.475 19.0888C29.4284 19.1416 29.381 19.1937 29.3329 19.2457L29.2803 19.3032L29.248 19.3369H26.6236C26.5737 19.344 26.5231 19.344 26.4732 19.3369H10.4962C9.69255 19.3369 8.64836 19.2044 8.24091 18.5712C7.83346 17.938 8.17927 17.0184 8.20784 16.9457C8.96861 15.3011 11.4216 10.5984 17.8393 2.16534H17.904L18.0348 2.17146L18.2731 2.18448L18.4062 2.19367C18.4904 2.19903 18.573 2.20592 18.6565 2.21204L18.7693 2.22123C18.8888 2.23195 19.0083 2.24267 19.1271 2.25569L19.1632 2.25952C19.2699 2.271 19.3774 2.28325 19.4842 2.29703L19.5999 2.31158C19.6811 2.3223 19.7623 2.33302 19.8428 2.34527L19.9691 2.36365C20.0495 2.37513 20.1292 2.38815 20.2089 2.40116L20.3246 2.4203C20.4231 2.43638 20.5208 2.45399 20.6178 2.47237L20.6742 2.48232C20.7922 2.50453 20.9088 2.52826 21.0253 2.55276L21.1065 2.56961L21.3733 2.62857L21.4823 2.6546C21.5635 2.67374 21.644 2.69288 21.7244 2.71355C21.7605 2.72198 21.7996 2.73116 21.8334 2.74112C21.9206 2.76332 22.0071 2.78629 22.0935 2.81003L22.1755 2.83223C22.2897 2.86362 22.401 2.89655 22.5175 2.93024L22.5453 2.93942C22.631 2.96469 22.716 2.99149 22.8017 3.01599C18.5648 7.91623 14.8894 12.6633 13.4649 14.5369C13.33 14.7145 13.247 14.9271 13.2252 15.1505C13.2034 15.3739 13.2437 15.599 13.3416 15.8002C13.4394 16.0014 13.5908 16.1704 13.7785 16.2881C13.9662 16.4058 14.1827 16.4673 14.4031 16.4656L31.2228 16.3224L31.2153 16.35ZM31.6085 15.1755L14.4 15.3225C14.39 15.3233 14.3799 15.3208 14.3713 15.3155C14.3626 15.3101 14.3559 15.3021 14.3519 15.2926C14.3475 15.2855 14.3456 15.2769 14.3467 15.2685C14.3478 15.2601 14.3518 15.2524 14.358 15.2467C15.8096 13.3394 19.6105 8.42693 23.9534 3.42868C25.6516 4.09404 27.1859 5.01054 28.4218 6.10391L28.4714 6.14755L28.5894 6.25628C29.1872 6.7994 29.7281 7.40419 30.2035 8.06094C30.2168 8.08925 30.2324 8.11639 30.2501 8.1421C30.3666 8.31055 30.4756 8.48129 30.5808 8.65204L30.5944 8.67424C31.4424 10.0754 31.8724 11.57 31.8724 13.1258C31.8717 13.8178 31.783 14.5067 31.6085 15.1755Z" fill="#333333"/>
<path d="M31.7393 8.39171C31.7393 8.39171 31.6288 8.18039 31.413 7.84426C31.383 7.79756 31.3514 7.75085 31.3206 7.70338L31.2875 7.65438C31.2492 7.59619 31.2123 7.538 31.1717 7.48057C31.162 7.46679 31.1507 7.45301 31.1401 7.43999C30.5643 6.61594 29.8909 5.86734 29.1352 5.21115C27.7106 3.96235 25.9372 2.92947 23.9812 2.21434C23.8564 2.16789 23.7311 2.12272 23.6053 2.07882C21.6652 1.41433 19.6376 1.05292 17.5913 1.00689H17.5867C17.3883 1 17.1988 1 17.0004 1C12.7597 1 8.76489 2.24114 5.75335 4.49372C2.68844 6.78688 1 9.85183 1 13.1258C1 16.3998 2.68844 19.4594 5.75335 21.7495C8.76564 24.002 12.7597 25.2424 17.0004 25.2424C19.5428 25.2424 22.0717 24.783 24.315 23.9071C26.4988 23.0565 28.4248 21.8145 29.8825 20.3169C29.9707 20.2276 30.0566 20.1372 30.1403 20.0459C31.295 18.7971 32.1122 17.4097 32.57 15.9189C32.8539 15.0168 32.9989 14.0754 33 13.1281C33.0015 11.4965 32.567 9.88169 31.7393 8.39171ZM17.0049 24.0962C8.79947 24.0962 2.12763 19.1745 2.12763 13.1258C2.12763 7.21565 8.48899 2.38279 16.423 2.15768C13.9279 5.47453 9.30314 11.8816 7.17643 16.471L7.16966 16.4863C7.14335 16.5483 6.52916 18.0176 7.28844 19.1998C7.83797 20.0543 8.91599 20.4877 10.4932 20.4877H26.4732C26.5231 20.4805 26.5737 20.4805 26.6236 20.4877H28.0091C25.2065 22.7663 21.2012 24.0962 17.0011 24.0962H17.0049ZM31.2153 16.35C31.2078 16.3692 31.1995 16.3883 31.1913 16.4074C31.1657 16.4679 31.1394 16.5276 31.1123 16.5881C31.1018 16.6126 31.0905 16.6364 31.0793 16.6609C31.0522 16.7198 31.0244 16.778 30.9966 16.8362L30.9672 16.8967C30.9289 16.9733 30.8921 17.0498 30.8485 17.1264L30.8364 17.1486C30.7996 17.2183 30.7613 17.2872 30.7222 17.3553C30.7101 17.3775 30.6974 17.399 30.6846 17.4204C30.6523 17.4771 30.6184 17.5337 30.5846 17.5896L30.5463 17.6532C30.5034 17.7228 30.4591 17.7918 30.414 17.8607C30.4111 17.866 30.4079 17.8712 30.4042 17.876C30.3546 17.9525 30.3042 18.0291 30.2538 18.1018L30.22 18.1501C30.1787 18.2083 30.1373 18.2665 30.0945 18.3239L30.0501 18.3844C30.006 18.4431 29.9609 18.502 29.9148 18.5612L29.8832 18.6018C29.8253 18.6784 29.7667 18.7481 29.7066 18.8208L29.6863 18.8438C29.6344 18.9066 29.581 18.9686 29.5261 19.0306C29.5096 19.0505 29.4923 19.0696 29.475 19.0888C29.4284 19.1416 29.381 19.1937 29.3329 19.2457L29.2803 19.3032L29.248 19.3369H26.6236C26.5737 19.344 26.5231 19.344 26.4732 19.3369H10.4962C9.69255 19.3369 8.64836 19.2044 8.24091 18.5712C7.83346 17.938 8.17927 17.0184 8.20784 16.9457C8.96861 15.3011 11.4216 10.5984 17.8393 2.16534H17.904L18.0348 2.17146L18.2731 2.18448L18.4062 2.19367C18.4904 2.19903 18.573 2.20592 18.6565 2.21204L18.7693 2.22123C18.8888 2.23195 19.0083 2.24267 19.1271 2.25569L19.1632 2.25952C19.2699 2.271 19.3774 2.28325 19.4842 2.29703L19.5999 2.31158C19.6811 2.3223 19.7623 2.33302 19.8428 2.34527L19.9691 2.36365C20.0495 2.37513 20.1292 2.38815 20.2089 2.40116L20.3246 2.4203C20.4231 2.43638 20.5208 2.45399 20.6178 2.47237L20.6742 2.48232C20.7922 2.50453 20.9088 2.52826 21.0253 2.55276L21.1065 2.56961L21.3733 2.62857L21.4823 2.6546C21.5635 2.67374 21.644 2.69288 21.7244 2.71355C21.7605 2.72198 21.7996 2.73116 21.8334 2.74112C21.9206 2.76332 22.0071 2.78629 22.0935 2.81003L22.1755 2.83223C22.2897 2.86362 22.401 2.89655 22.5175 2.93024L22.5453 2.93942C22.631 2.96469 22.716 2.99149 22.8017 3.01599C18.5648 7.91623 14.8894 12.6633 13.4649 14.5369C13.33 14.7145 13.247 14.9271 13.2252 15.1505C13.2034 15.3739 13.2437 15.599 13.3416 15.8002C13.4394 16.0014 13.5908 16.1704 13.7785 16.2881C13.9662 16.4058 14.1827 16.4673 14.4031 16.4656L31.2228 16.3224L31.2153 16.35ZM31.6085 15.1755L14.4 15.3225C14.39 15.3233 14.3799 15.3208 14.3713 15.3155C14.3626 15.3101 14.3559 15.3021 14.3519 15.2926C14.3475 15.2855 14.3456 15.2769 14.3467 15.2685C14.3478 15.2601 14.3518 15.2524 14.358 15.2467C15.8096 13.3394 19.6105 8.42693 23.9534 3.42868C25.6516 4.09404 27.1859 5.01054 28.4218 6.10391L28.4714 6.14755L28.5894 6.25628C29.1872 6.7994 29.7281 7.40419 30.2035 8.06094C30.2168 8.08925 30.2324 8.11639 30.2501 8.1421C30.3666 8.31055 30.4756 8.48129 30.5808 8.65204L30.5944 8.67424C31.4424 10.0754 31.8724 11.57 31.8724 13.1258C31.8717 13.8178 31.783 14.5067 31.6085 15.1755Z" stroke="#333333" stroke-width="0.2" mask="url(#path-1-outside-1)"/>
</svg>
