<svg width="26" height="26" viewBox="0 0 26 26" fill="none" xmlns="http://www.w3.org/2000/svg">
<path d="M13 0.95C6.35569 0.95 0.95 6.35569 0.95 13C0.95 19.6443 6.35569 25.05 13 25.05C19.6448 25.05 25.05 19.6443 25.05 13C25.05 6.35569 19.6448 0.95 13 0.95ZM13 23.9065C6.98588 23.9065 2.09348 19.0141 2.09348 13C2.09348 6.98588 6.98588 2.09348 13 2.09348C19.0136 2.09348 23.9065 6.98588 23.9065 13C23.9065 19.0141 19.0136 23.9065 13 23.9065Z" fill="#333333" stroke="#333333" stroke-width="0.1"/>
<path d="M10.4412 10.9128C10.4412 10.0222 9.71653 9.29753 8.82596 9.29753C7.93539 9.29753 7.21074 10.0222 7.21074 10.9128C7.21074 11.8033 7.93539 12.528 8.82596 12.528C9.71653 12.528 10.4412 11.8033 10.4412 10.9128ZM8.35422 10.9128C8.35422 10.6529 8.5661 10.441 8.82596 10.441C9.08582 10.441 9.2977 10.6529 9.2977 10.9128C9.2977 11.1726 9.08582 11.3845 8.82596 11.3845C8.5661 11.3845 8.35422 11.1726 8.35422 10.9128Z" fill="#333333" stroke="#333333" stroke-width="0.1"/>
<path d="M17.1743 9.29753C16.2838 9.29753 15.5591 10.0222 15.5591 10.9128C15.5591 11.8033 16.2838 12.528 17.1743 12.528C18.0649 12.528 18.7896 11.8033 18.7896 10.9128C18.7896 10.0222 18.0649 9.29753 17.1743 9.29753ZM17.1743 11.3845C16.914 11.3845 16.7026 11.1726 16.7026 10.9128C16.7026 10.6529 16.914 10.441 17.1743 10.441C17.4347 10.441 17.6461 10.6529 17.6461 10.9128C17.6461 11.1726 17.4347 11.3845 17.1743 11.3845Z" fill="#333333" stroke="#333333" stroke-width="0.1"/>
<path d="M18.0765 18.6436C18.3115 18.4332 18.3314 18.0719 18.1211 17.8364L18.121 17.8364C16.8254 16.3893 14.9591 15.559 12.9994 15.559C11.0403 15.559 9.17351 16.3888 7.87784 17.8364L7.8778 17.8364L17.2691 18.599C17.3818 18.7255 17.5386 18.7894 17.6951 18.7894C17.8305 18.7894 17.9677 18.7415 18.0765 18.6436ZM18.0765 18.6436C18.0765 18.6436 18.0765 18.6436 18.0764 18.6436L18.0431 18.6064L18.0765 18.6436C18.0765 18.6436 18.0765 18.6436 18.0765 18.6436ZM8.72974 18.599L8.72973 18.5991C8.51935 18.834 8.15801 18.8546 7.92244 18.6436C7.92243 18.6436 7.92243 18.6436 7.92243 18.6436L7.95579 18.6064L8.72974 18.599ZM8.72974 18.599C9.80849 17.3936 11.3648 16.7025 12.9994 16.7025M8.72974 18.599L12.9994 16.7025M12.9994 16.7025C14.6341 16.7025 16.1903 17.3936 17.2691 18.599L12.9994 16.7025Z" fill="#333333" stroke="#333333" stroke-width="0.1"/>
</svg>
