<svg xmlns="http://www.w3.org/2000/svg" width="34" height="26" fill="none" viewBox="0 0 34 26">
    <mask id="ys9150z9fa" width="34" height="26" x="0" y="0" fill="#000" maskUnits="userSpaceOnUse">
        <path fill="#fff" d="M0 0H34V26H0z"/>
        <path d="M31.74 8.392s-.111-.212-.327-.548l-.092-.14-.034-.05c-.038-.058-.075-.116-.115-.173l-.032-.041c-.576-.824-1.25-1.573-2.005-2.229-1.424-1.249-3.198-2.282-5.154-2.997-.125-.046-.25-.091-.376-.135-1.94-.665-3.967-1.026-6.014-1.072h-.004C17.388 1 17.199 1 17 1 12.76 1 8.765 2.241 5.753 4.494 2.688 6.787 1 9.852 1 13.126s1.688 6.333 4.753 8.624C8.766 24.002 12.76 25.242 17 25.242c2.543 0 5.072-.459 7.315-1.335 2.184-.85 4.11-2.093 5.567-3.59.089-.09.175-.18.258-.271 1.155-1.249 1.972-2.636 2.43-4.127.284-.902.429-1.844.43-2.79.002-1.633-.433-3.247-1.26-4.737zM17.004 24.096c-8.206 0-14.877-4.922-14.877-10.97 0-5.91 6.361-10.743 14.295-10.968-2.495 3.317-7.12 9.724-9.247 14.313l-.006.015c-.027.062-.64 1.532.118 2.714.55.854 1.628 1.288 3.205 1.288h15.98c.05-.008.1-.008.15 0h1.386c-2.803 2.278-6.808 3.608-11.008 3.608h.004zm14.21-7.746c-.007.02-.015.038-.024.057-.025.06-.052.12-.079.181-.01.025-.021.048-.033.073l-.082.175-.03.06c-.038.077-.075.154-.118.23l-.013.023c-.036.07-.075.138-.114.206l-.037.065-.1.17-.039.063c-.043.07-.087.139-.132.208l-.01.015c-.05.076-.1.153-.15.226l-.034.048-.125.174-.045.06c-.044.06-.09.118-.135.177l-.032.04c-.058.077-.116.147-.176.22l-.02.023-.16.187-.052.058-.142.157-.053.057-.032.034h-2.624c-.05.007-.1.007-.15 0H10.495c-.803 0-1.848-.133-2.255-.766-.408-.633-.062-1.553-.033-1.625.76-1.645 3.214-6.348 9.631-14.78h.065l.13.005.24.013.132.01c.084.005.167.012.25.018l.113.01c.12.01.24.02.358.034l.036.004c.107.011.214.023.321.037l.116.015.243.033.126.019c.08.011.16.024.24.037l.116.02c.098.015.196.033.293.051l.056.01.351.07.082.018.266.059.11.026c.08.019.161.038.241.059.037.008.076.017.11.027.087.022.173.045.26.069l.081.022.342.098.028.01.257.076c-4.237 4.9-7.913 9.647-9.337 11.52-.135.178-.218.391-.24.614-.022.224.019.449.117.65.097.201.249.37.436.488.188.118.405.18.625.178l16.82-.144-.008.028zm.393-1.175l-17.208.147c-.01.001-.02-.001-.029-.006-.008-.006-.015-.014-.02-.023-.004-.007-.005-.016-.004-.024 0-.009.005-.017.011-.022 1.452-1.908 5.252-6.82 9.595-11.818 1.699.665 3.233 1.582 4.469 2.675l.05.044.117.108c.598.543 1.14 1.148 1.614 1.805.014.028.03.055.047.081.117.169.226.34.33.51l.014.022c.848 1.401 1.278 2.896 1.278 4.452 0 .692-.089 1.38-.264 2.05z"/>
    </mask>
    <path fill="#fff" d="M31.74 8.392s-.111-.212-.327-.548l-.092-.14-.034-.05c-.038-.058-.075-.116-.115-.173l-.032-.041c-.576-.824-1.25-1.573-2.005-2.229-1.424-1.249-3.198-2.282-5.154-2.997-.125-.046-.25-.091-.376-.135-1.94-.665-3.967-1.026-6.014-1.072h-.004C17.388 1 17.199 1 17 1 12.76 1 8.765 2.241 5.753 4.494 2.688 6.787 1 9.852 1 13.126s1.688 6.333 4.753 8.624C8.766 24.002 12.76 25.242 17 25.242c2.543 0 5.072-.459 7.315-1.335 2.184-.85 4.11-2.093 5.567-3.59.089-.09.175-.18.258-.271 1.155-1.249 1.972-2.636 2.43-4.127.284-.902.429-1.844.43-2.79.002-1.633-.433-3.247-1.26-4.737zM17.004 24.096c-8.206 0-14.877-4.922-14.877-10.97 0-5.91 6.361-10.743 14.295-10.968-2.495 3.317-7.12 9.724-9.247 14.313l-.006.015c-.027.062-.64 1.532.118 2.714.55.854 1.628 1.288 3.205 1.288h15.98c.05-.008.1-.008.15 0h1.386c-2.803 2.278-6.808 3.608-11.008 3.608h.004zm14.21-7.746c-.007.02-.015.038-.024.057-.025.06-.052.12-.079.181-.01.025-.021.048-.033.073l-.082.175-.03.06c-.038.077-.075.154-.118.23l-.013.023c-.036.07-.075.138-.114.206l-.037.065-.1.17-.039.063c-.043.07-.087.139-.132.208l-.01.015c-.05.076-.1.153-.15.226l-.034.048-.125.174-.045.06c-.044.06-.09.118-.135.177l-.032.04c-.058.077-.116.147-.176.22l-.02.023-.16.187-.052.058-.142.157-.053.057-.032.034h-2.624c-.05.007-.1.007-.15 0H10.495c-.803 0-1.848-.133-2.255-.766-.408-.633-.062-1.553-.033-1.625.76-1.645 3.214-6.348 9.631-14.78h.065l.13.005.24.013.132.01c.084.005.167.012.25.018l.113.01c.12.01.24.02.358.034l.036.004c.107.011.214.023.321.037l.116.015.243.033.126.019c.08.011.16.024.24.037l.116.02c.098.015.196.033.293.051l.056.01.351.07.082.018.266.059.11.026c.08.019.161.038.241.059.037.008.076.017.11.027.087.022.173.045.26.069l.081.022.342.098.028.01.257.076c-4.237 4.9-7.913 9.647-9.337 11.52-.135.178-.218.391-.24.614-.022.224.019.449.117.65.097.201.249.37.436.488.188.118.405.18.625.178l16.82-.144-.008.028zm.393-1.175l-17.208.147c-.01.001-.02-.001-.029-.006-.008-.006-.015-.014-.02-.023-.004-.007-.005-.016-.004-.024 0-.009.005-.017.011-.022 1.452-1.908 5.252-6.82 9.595-11.818 1.699.665 3.233 1.582 4.469 2.675l.05.044.117.108c.598.543 1.14 1.148 1.614 1.805.014.028.03.055.047.081.117.169.226.34.33.51l.014.022c.848 1.401 1.278 2.896 1.278 4.452 0 .692-.089 1.38-.264 2.05z"/>
    <path stroke="#fff" stroke-width=".2" d="M31.74 8.392s-.111-.212-.327-.548l-.092-.14-.034-.05c-.038-.058-.075-.116-.115-.173l-.032-.041c-.576-.824-1.25-1.573-2.005-2.229-1.424-1.249-3.198-2.282-5.154-2.997-.125-.046-.25-.091-.376-.135-1.94-.665-3.967-1.026-6.014-1.072h-.004C17.388 1 17.199 1 17 1 12.76 1 8.765 2.241 5.753 4.494 2.688 6.787 1 9.852 1 13.126s1.688 6.333 4.753 8.624C8.766 24.002 12.76 25.242 17 25.242c2.543 0 5.072-.459 7.315-1.335 2.184-.85 4.11-2.093 5.567-3.59.089-.09.175-.18.258-.271 1.155-1.249 1.972-2.636 2.43-4.127.284-.902.429-1.844.43-2.79.002-1.633-.433-3.247-1.26-4.737zM17.004 24.096c-8.206 0-14.877-4.922-14.877-10.97 0-5.91 6.361-10.743 14.295-10.968-2.495 3.317-7.12 9.724-9.247 14.313l-.006.015c-.027.062-.64 1.532.118 2.714.55.854 1.628 1.288 3.205 1.288h15.98c.05-.008.1-.008.15 0h1.386c-2.803 2.278-6.808 3.608-11.008 3.608h.004zm14.21-7.746c-.007.02-.015.038-.024.057-.025.06-.052.12-.079.181-.01.025-.021.048-.033.073l-.082.175-.03.06c-.038.077-.075.154-.118.23l-.013.023c-.036.07-.075.138-.114.206l-.037.065-.1.17-.039.063c-.043.07-.087.139-.132.208l-.01.015c-.05.076-.1.153-.15.226l-.034.048-.125.174-.045.06c-.044.06-.09.118-.135.177l-.032.04c-.058.077-.116.147-.176.22l-.02.023-.16.187-.052.058-.142.157-.053.057-.032.034h-2.624c-.05.007-.1.007-.15 0H10.495c-.803 0-1.848-.133-2.255-.766-.408-.633-.062-1.553-.033-1.625.76-1.645 3.214-6.348 9.631-14.78h.065l.13.005.24.013.132.01c.084.005.167.012.25.018l.113.01c.12.01.24.02.358.034l.036.004c.107.011.214.023.321.037l.116.015.243.033.126.019c.08.011.16.024.24.037l.116.02c.098.015.196.033.293.051l.056.01.351.07.082.018.266.059.11.026c.08.019.161.038.241.059.037.008.076.017.11.027.087.022.173.045.26.069l.081.022.342.098.028.01.257.076c-4.237 4.9-7.913 9.647-9.337 11.52-.135.178-.218.391-.24.614-.022.224.019.449.117.65.097.201.249.37.436.488.188.118.405.18.625.178l16.82-.144-.008.028zm.393-1.175l-17.208.147c-.01.001-.02-.001-.029-.006-.008-.006-.015-.014-.02-.023-.004-.007-.005-.016-.004-.024 0-.009.005-.017.011-.022 1.452-1.908 5.252-6.82 9.595-11.818 1.699.665 3.233 1.582 4.469 2.675l.05.044.117.108c.598.543 1.14 1.148 1.614 1.805.014.028.03.055.047.081.117.169.226.34.33.51l.014.022c.848 1.401 1.278 2.896 1.278 4.452 0 .692-.089 1.38-.264 2.05z" mask="url(#ys9150z9fa)"/>
</svg>
