<svg xmlns="http://www.w3.org/2000/svg" viewBox="0 0 353.72 367.95"><defs><style>.cls-1{fill:#3669C9;}.cls-2{fill:#fff;}</style></defs><g id="Layer_2" data-name="Layer 2"><g id="Layer_1-2" data-name="Layer 1"><path className="cls-1" d="M301.75,302.08a176.5,176.5,0,1,0-46.83,33.51l53.58,31.47a6.31,6.31,0,0,0,9.28-7.13Z"/><path className="cls-2" d="M234.06,96.72l-5.39,8.11c36.15,14.86,50.76,41.86,50.76,70.78,0,14.46-3.91,27.54-11.54,27.54H173.1c-12.92,0-16.75-4.59-10.95-16.08,10.37-20.45,41.43-59.59,60.58-83.13,2.8-3.44,5.09-8.84-5-11.53-10.28-2.74-26.9-3.89-41-3.89-71.28,0-121,38.55-121,88.24,0,45.74,43.09,88.44,120.8,88.44,34.34,0,76.44-9.65,100.34-36.72H256.36c-23.27,21-53.63,25.81-79.58,25.81-62.71,0-102.39-32.55-102.39-77.53,0-41.47,44.93-78.71,101.62-78.71,6.78,0,9,1.45,1.83,10.35-14.49,18-40.4,53.67-52.57,74.55-13,22.38.27,40.57,29.55,40.57H273.4c7.32,0,11.48-4.17,15.75-11.73a72.14,72.14,0,0,0,8.76-35c0-33.7-25.28-64.68-63.85-80"/></g></g></svg>