<svg width="28" height="28" viewBox="0 0 28 28" fill="none" xmlns="http://www.w3.org/2000/svg">
<path d="M26.9374 26.106L26.9375 26.1059L26.9354 26.1031L21.9871 19.5776L21.9874 19.5774L21.9829 19.5728C21.8799 19.4677 21.7177 19.3539 21.5474 19.3539H19.3523C21.18 17.0605 22.797 13.9161 22.797 9.92157C22.797 4.94961 18.8267 0.95 14 0.95C9.17312 0.95 5.20303 5.00077 5.20303 9.92157C5.20303 13.9161 6.81997 17.0605 8.64767 19.3539H6.45262C6.29121 19.3539 6.1235 19.4094 6.01188 19.579L1.06463 26.1031L1.06453 26.1031L1.06262 26.106C0.956045 26.269 0.899694 26.4919 1.00959 26.7161C1.06245 26.8239 1.13006 26.9079 1.21381 26.9649C1.29792 27.0221 1.39541 27.05 1.50433 27.05H26.4957C26.6046 27.05 26.7021 27.0221 26.7862 26.9649C26.8699 26.9079 26.9376 26.8239 26.9904 26.7161C27.1003 26.4919 27.044 26.269 26.9374 26.106ZM14 2.12059C18.22 2.12059 21.6973 5.66589 21.6973 9.97255C21.6973 17.54 15.3575 21.8534 14 22.7096C12.6423 21.8539 6.30269 17.5906 6.30269 9.97255C6.30269 5.61491 9.73003 2.12059 14 2.12059ZM21.2725 20.4735L25.3458 25.8794H2.65425L6.72746 20.4735H9.62982C10.652 21.5645 11.6605 22.3897 12.4211 22.9429C12.8033 23.2208 13.123 23.4303 13.3506 23.5703C13.4643 23.6404 13.5552 23.6932 13.6196 23.7286C13.6517 23.7463 13.6775 23.7598 13.6964 23.769C13.7057 23.7736 13.714 23.7774 13.7207 23.7802C13.7219 23.7807 13.7232 23.7812 13.7245 23.7817C13.7599 23.8121 13.8059 23.825 13.8491 23.8313C13.8964 23.8382 13.9494 23.8382 13.9979 23.8382H14H14.0027C14.0505 23.8382 14.0917 23.8382 14.1333 23.8312C14.1755 23.824 14.2163 23.81 14.267 23.7847C14.2678 23.7844 14.2684 23.7842 14.2688 23.7841C14.2724 23.783 14.276 23.7816 14.2793 23.7802C14.286 23.7774 14.2943 23.7736 14.3036 23.769C14.3225 23.7598 14.3483 23.7463 14.3804 23.7286C14.4448 23.6932 14.5357 23.6404 14.6494 23.5703C14.877 23.4303 15.1967 23.2208 15.5789 22.9429C16.3395 22.3897 17.348 21.5645 18.3702 20.4735H21.2725Z" fill="#333333" stroke="#333333" stroke-width="0.1"/>
<path d="M13.9999 12.9795C15.9283 12.9795 17.4487 11.3753 17.4487 9.46288C17.4487 7.49847 15.8773 5.94622 13.9999 5.94622C12.0715 5.94622 10.5511 7.55041 10.5511 9.46288C10.5511 11.4268 12.072 12.9795 13.9999 12.9795ZM13.9999 7.06582C15.3202 7.06582 16.3491 8.16338 16.3491 9.46288C16.3491 10.812 15.2716 11.8599 13.9999 11.8599C12.6796 11.8599 11.6507 10.7624 11.6507 9.46288C11.6507 8.11309 12.6789 7.06582 13.9999 7.06582Z" fill="#333333" stroke="#333333" stroke-width="0.1"/>
</svg>
