<svg xmlns="http://www.w3.org/2000/svg" width="16" height="16" fill="none" viewBox="0 0 16 16">
    <path fill="#fff" d="M6.77 0H.615C.275 0 0 .276 0 .615V6.77c0 .34.276.616.615.616H6.77c.34 0 .615-.276.615-.616V.615C7.385.275 7.109 0 6.77 0zM15.384 0H9.23c-.34 0-.615.276-.615.615V6.77c0 .34.275.616.615.616h6.154c.34 0 .616-.276.616-.616V.615c0-.34-.276-.615-.616-.615zM6.77 8.615H.615c-.34 0-.615.276-.615.616v6.154c0 .34.276.615.615.615H6.77c.34 0 .615-.275.615-.615V9.23c0-.34-.276-.616-.615-.616zM15.385 8.615H9.23c-.34 0-.616.276-.616.616v6.154c0 .34.276.615.616.615h6.154c.34 0 .615-.275.615-.615V9.23c0-.34-.275-.616-.615-.616z"/>
</svg>
