<svg width="25" height="25" viewBox="0 0 25 25" fill="none" xmlns="http://www.w3.org/2000/svg">
<path d="M23.2422 2.79367L25 1.03589L23.9642 0L22.2063 1.75788C21.3964 1.13624 20.4245 0.73796 19.4052 0.619443L14.0967 0.00214864L0 14.0988L10.9021 25.0009L24.9988 10.9042L24.3809 5.59476C24.2624 4.57548 23.864 3.60356 23.2422 2.79367ZM10.9021 22.9291L2.07183 14.0988L14.6314 1.53921L19.236 2.07461C19.9499 2.15762 20.6056 2.41487 21.1615 2.8027L19.809 4.15513C19.5111 4.01097 19.1822 3.9345 18.8415 3.9345C18.2474 3.9345 17.6888 4.16582 17.2688 4.58593C16.4016 5.4531 16.4016 6.86412 17.2688 7.73129C17.6889 8.1514 18.2474 8.38272 18.8415 8.38272C19.4356 8.38272 19.9941 8.15135 20.4141 7.73129C21.0999 7.04558 21.2428 6.01995 20.844 5.19194L22.1974 3.83854C22.5854 4.39445 22.8428 5.05023 22.9258 5.76416L23.4617 10.3696L10.9021 22.9291ZM19.3782 6.69535C19.2349 6.83873 19.0442 6.91769 18.8415 6.91769C18.6387 6.91769 18.4481 6.83873 18.3046 6.69535C18.0087 6.39933 18.0087 5.91779 18.3046 5.62177C18.448 5.47839 18.6387 5.39943 18.8415 5.39943C19.0443 5.39943 19.2349 5.47839 19.3782 5.62177C19.6742 5.91779 19.6742 6.39938 19.3782 6.69535Z" fill="#333333"/>
<path d="M8.5271 12.4352L16.0276 11.3594L16.2356 12.8097L8.73513 13.8855L8.5271 12.4352Z" fill="#333333"/>
<path d="M11.3743 9.49988L12.4101 8.46407L13.4458 9.49981L12.41 10.5356L11.3743 9.49988Z" fill="#333333"/>
<path d="M11.4783 15.6954L12.5141 14.6596L13.5498 15.6954L12.514 16.7312L11.4783 15.6954Z" fill="#333333"/>
</svg>
