<svg width="146" height="20" viewBox="0 0 146 20" fill="none" xmlns="http://www.w3.org/2000/svg">
<path d="M7.9331 7.93C7.9331 7.482 7.85377 7.06667 7.6951 6.684C7.54577 6.30133 7.32643 5.97 7.0371 5.69C6.74777 5.41 6.3931 5.19067 5.9731 5.032C5.56243 4.864 5.10043 4.78 4.5871 4.78H1.5211V15H2.9211V10.982H4.8531C5.26377 10.982 5.65577 10.9027 6.0291 10.744C6.40243 10.576 6.7291 10.352 7.0091 10.072C7.2891 9.792 7.5131 9.47 7.6811 9.106C7.8491 8.73267 7.9331 8.34067 7.9331 7.93ZM6.4771 7.846C6.4771 8.434 6.28577 8.88667 5.9031 9.204C5.52977 9.512 5.0491 9.666 4.4611 9.666H2.9211V6.096H4.3771C5.03043 6.096 5.54377 6.25 5.9171 6.558C6.29043 6.85667 6.4771 7.286 6.4771 7.846ZM14.5431 11.99C14.5431 11.598 14.4684 11.22 14.3191 10.856C14.1791 10.492 13.9737 10.1747 13.7031 9.904C13.4417 9.63333 13.1244 9.41867 12.7511 9.26C12.3871 9.092 11.9764 9.008 11.5191 9.008C11.0617 9.008 10.6511 9.092 10.2871 9.26C9.92307 9.428 9.61507 9.65667 9.36307 9.946C9.11107 10.226 8.91507 10.548 8.77507 10.912C8.6444 11.276 8.57907 11.654 8.57907 12.046C8.57907 12.522 8.65374 12.9513 8.80307 13.334C8.9524 13.7167 9.15774 14.048 9.41907 14.328C9.6804 14.5987 9.99307 14.8087 10.3571 14.958C10.7211 15.098 11.1177 15.168 11.5471 15.168C11.9951 15.168 12.4011 15.0887 12.7651 14.93C13.1291 14.762 13.4417 14.5333 13.7031 14.244C13.9737 13.9547 14.1791 13.6187 14.3191 13.236C14.4684 12.844 14.5431 12.4287 14.5431 11.99ZM13.1851 12.074C13.1851 12.3353 13.1524 12.5827 13.0871 12.816C13.0217 13.04 12.9191 13.236 12.7791 13.404C12.6484 13.572 12.4757 13.7027 12.2611 13.796C12.0557 13.8893 11.8037 13.936 11.5051 13.936C11.0104 13.936 10.6231 13.768 10.3431 13.432C10.0724 13.096 9.93707 12.634 9.93707 12.046C9.93707 11.794 9.96974 11.5607 10.0351 11.346C10.1097 11.122 10.2124 10.9307 10.3431 10.772C10.4831 10.604 10.6511 10.4733 10.8471 10.38C11.0431 10.2867 11.2671 10.24 11.5191 10.24C12.0324 10.24 12.4384 10.4033 12.7371 10.73C13.0357 11.0567 13.1851 11.5047 13.1851 12.074ZM24.2513 9.176H22.8373L21.6613 11.864C21.6333 11.9387 21.6053 12.0133 21.5773 12.088C21.5493 12.1533 21.5353 12.186 21.5353 12.186C21.5353 12.186 21.5213 12.1533 21.4933 12.088C21.4653 12.0227 21.4373 11.9573 21.4093 11.892L19.9673 9.008L18.5113 11.892C18.474 11.9667 18.4413 12.0367 18.4133 12.102C18.3946 12.158 18.3853 12.186 18.3853 12.186C18.3853 12.186 18.3713 12.1533 18.3433 12.088C18.3246 12.0227 18.306 11.9667 18.2873 11.92L17.0973 9.176H15.6693L18.2593 15.168L19.8553 11.738C19.8833 11.6727 19.9066 11.6073 19.9253 11.542C19.9533 11.4767 19.9673 11.444 19.9673 11.444C19.9673 11.444 19.9766 11.4767 19.9953 11.542C20.0233 11.6073 20.0513 11.6727 20.0793 11.738L21.6473 15.168L24.2513 9.176ZM31.2816 12.256C31.2816 11.78 31.2116 11.346 31.0716 10.954C30.9316 10.5527 30.7309 10.212 30.4696 9.932C30.2176 9.64267 29.9096 9.41867 29.5456 9.26C29.1909 9.092 28.7943 9.008 28.3556 9.008C27.9169 9.008 27.5156 9.08733 27.1516 9.246C26.7876 9.39533 26.4703 9.60533 26.1996 9.876C25.9383 10.1467 25.7329 10.4687 25.5836 10.842C25.4436 11.206 25.3736 11.6027 25.3736 12.032C25.3736 12.5267 25.4483 12.97 25.5976 13.362C25.7563 13.7447 25.9709 14.0713 26.2416 14.342C26.5216 14.6033 26.8436 14.8087 27.2076 14.958C27.5809 15.098 27.9823 15.168 28.4116 15.168C29.0276 15.168 29.5503 15.0653 29.9796 14.86C30.4183 14.6547 30.8196 14.3933 31.1836 14.076L30.3716 13.236C30.1009 13.4413 29.8209 13.6093 29.5316 13.74C29.2516 13.8707 28.8829 13.936 28.4256 13.936C28.1736 13.936 27.9403 13.894 27.7256 13.81C27.5203 13.7167 27.3429 13.5953 27.1936 13.446C27.0443 13.2967 26.9276 13.1193 26.8436 12.914C26.7596 12.7087 26.7129 12.4893 26.7036 12.256H31.2816ZM29.8396 11.248H26.7596C26.8343 10.9213 27.0116 10.6647 27.2916 10.478C27.5809 10.2913 27.9169 10.198 28.2996 10.198C28.6729 10.198 28.9949 10.2913 29.2656 10.478C29.5456 10.6553 29.7369 10.912 29.8396 11.248ZM37.3329 9.442C37.1462 9.29267 36.9642 9.18533 36.7869 9.12C36.6189 9.04533 36.4182 9.008 36.1849 9.008C35.5595 9.008 35.0369 9.29733 34.6169 9.876V9.176H33.2869V15H34.6169V12.046C34.6169 11.486 34.7335 11.052 34.9669 10.744C35.2095 10.4267 35.5175 10.268 35.8909 10.268C36.0215 10.268 36.1522 10.2913 36.2829 10.338C36.4229 10.3753 36.5722 10.45 36.7309 10.562L37.3329 9.442ZM44.289 12.256C44.289 11.78 44.219 11.346 44.079 10.954C43.939 10.5527 43.7384 10.212 43.477 9.932C43.225 9.64267 42.917 9.41867 42.553 9.26C42.1984 9.092 41.8017 9.008 41.363 9.008C40.9244 9.008 40.523 9.08733 40.159 9.246C39.795 9.39533 39.4777 9.60533 39.207 9.876C38.9457 10.1467 38.7404 10.4687 38.591 10.842C38.451 11.206 38.381 11.6027 38.381 12.032C38.381 12.5267 38.4557 12.97 38.605 13.362C38.7637 13.7447 38.9784 14.0713 39.249 14.342C39.529 14.6033 39.851 14.8087 40.215 14.958C40.5884 15.098 40.9897 15.168 41.419 15.168C42.035 15.168 42.5577 15.0653 42.987 14.86C43.4257 14.6547 43.827 14.3933 44.191 14.076L43.379 13.236C43.1084 13.4413 42.8284 13.6093 42.539 13.74C42.259 13.8707 41.8904 13.936 41.433 13.936C41.181 13.936 40.9477 13.894 40.733 13.81C40.5277 13.7167 40.3504 13.5953 40.201 13.446C40.0517 13.2967 39.935 13.1193 39.851 12.914C39.767 12.7087 39.7204 12.4893 39.711 12.256H44.289ZM42.847 11.248H39.767C39.8417 10.9213 40.019 10.6647 40.299 10.478C40.5884 10.2913 40.9244 10.198 41.307 10.198C41.6804 10.198 42.0024 10.2913 42.273 10.478C42.553 10.6553 42.7444 10.912 42.847 11.248ZM51.5023 15V4.78H50.1723V9.792C49.743 9.26933 49.1923 9.008 48.5203 9.008C48.1376 9.008 47.7876 9.08733 47.4703 9.246C47.1623 9.39533 46.8916 9.61 46.6583 9.89C46.4343 10.1607 46.257 10.4827 46.1263 10.856C46.005 11.22 45.9443 11.6167 45.9443 12.046C45.9443 12.466 46.005 12.8673 46.1263 13.25C46.257 13.6233 46.4343 13.9547 46.6583 14.244C46.8916 14.524 47.1623 14.748 47.4703 14.916C47.7876 15.084 48.1376 15.168 48.5203 15.168C48.9216 15.168 49.2576 15.0887 49.5283 14.93C49.8083 14.762 50.023 14.5707 50.1723 14.356V15H51.5023ZM50.2843 12.06C50.2843 12.3027 50.247 12.5407 50.1723 12.774C50.107 12.998 50.009 13.1987 49.8783 13.376C49.7476 13.544 49.589 13.6793 49.4023 13.782C49.2156 13.8847 49.0056 13.936 48.7723 13.936C48.539 13.936 48.329 13.8893 48.1423 13.796C47.965 13.6933 47.811 13.558 47.6803 13.39C47.559 13.222 47.4656 13.026 47.4003 12.802C47.335 12.578 47.3023 12.3447 47.3023 12.102C47.3023 11.8593 47.335 11.626 47.4003 11.402C47.4656 11.178 47.559 10.982 47.6803 10.814C47.811 10.6367 47.965 10.4967 48.1423 10.394C48.329 10.2913 48.5436 10.24 48.7863 10.24C49.0196 10.24 49.225 10.2913 49.4023 10.394C49.589 10.4967 49.7476 10.632 49.8783 10.8C50.009 10.968 50.107 11.164 50.1723 11.388C50.247 11.6027 50.2843 11.8267 50.2843 12.06ZM62.2484 12.004C62.2484 11.5747 62.1831 11.178 62.0524 10.814C61.9311 10.4407 61.7537 10.1233 61.5204 9.862C61.2964 9.59133 61.0257 9.38133 60.7084 9.232C60.3911 9.08267 60.0457 9.008 59.6724 9.008C59.3271 9.008 59.0097 9.08733 58.7204 9.246C58.4404 9.40467 58.2071 9.61467 58.0204 9.876V4.78H56.6904V15H58.0204V14.3C58.1697 14.5147 58.3797 14.7153 58.6504 14.902C58.9304 15.0793 59.2711 15.168 59.6724 15.168C60.0457 15.168 60.3911 15.084 60.7084 14.916C61.0257 14.7387 61.2964 14.5053 61.5204 14.216C61.7537 13.9267 61.9311 13.5907 62.0524 13.208C62.1831 12.8253 62.2484 12.424 62.2484 12.004ZM60.8904 12.06C60.8904 12.3213 60.8577 12.5687 60.7924 12.802C60.7271 13.026 60.6291 13.222 60.4984 13.39C60.3771 13.558 60.2231 13.6933 60.0364 13.796C59.8497 13.8893 59.6304 13.936 59.3784 13.936C59.1637 13.936 58.9631 13.8847 58.7764 13.782C58.5991 13.67 58.4451 13.5253 58.3144 13.348C58.1837 13.1707 58.0811 12.97 58.0064 12.746C57.9411 12.522 57.9084 12.2933 57.9084 12.06C57.9084 11.8267 57.9411 11.6027 58.0064 11.388C58.0811 11.164 58.1837 10.968 58.3144 10.8C58.4451 10.632 58.5991 10.4967 58.7764 10.394C58.9631 10.2913 59.1684 10.24 59.3924 10.24C59.6444 10.24 59.8637 10.2913 60.0504 10.394C60.2371 10.4873 60.3911 10.618 60.5124 10.786C60.6431 10.954 60.7364 11.15 60.7924 11.374C60.8577 11.5887 60.8904 11.8173 60.8904 12.06ZM69.0723 9.176H67.6583L66.3843 12.97C66.3656 13.0353 66.3423 13.1147 66.3143 13.208C66.2956 13.292 66.2863 13.334 66.2863 13.334C66.2863 13.334 66.277 13.2873 66.2583 13.194C66.2396 13.1007 66.221 13.0307 66.2023 12.984L64.9143 9.176H63.4723L65.5023 15.112C65.4463 15.2613 65.395 15.406 65.3483 15.546C65.3016 15.6953 65.241 15.826 65.1663 15.938C65.0916 16.05 64.989 16.1387 64.8583 16.204C64.737 16.2693 64.569 16.302 64.3543 16.302C64.261 16.302 64.163 16.288 64.0603 16.26C63.967 16.2413 63.8736 16.2133 63.7803 16.176V17.38C63.9576 17.436 64.1163 17.4687 64.2563 17.478C64.3963 17.4967 64.5503 17.506 64.7183 17.506C65.0076 17.506 65.255 17.464 65.4603 17.38C65.6656 17.3053 65.8383 17.198 65.9783 17.058C66.1183 16.9273 66.235 16.7733 66.3283 16.596C66.4216 16.4187 66.501 16.232 66.5663 16.036L69.0723 9.176ZM110.135 4.78H108.805L105.123 15H106.453L110.135 4.78ZM113.197 15V4.78H111.867V15H113.197ZM121.189 11.99C121.189 11.598 121.114 11.22 120.965 10.856C120.825 10.492 120.62 10.1747 120.349 9.904C120.088 9.63333 119.77 9.41867 119.397 9.26C119.033 9.092 118.622 9.008 118.165 9.008C117.708 9.008 117.297 9.092 116.933 9.26C116.569 9.428 116.261 9.65667 116.009 9.946C115.757 10.226 115.561 10.548 115.421 10.912C115.29 11.276 115.225 11.654 115.225 12.046C115.225 12.522 115.3 12.9513 115.449 13.334C115.598 13.7167 115.804 14.048 116.065 14.328C116.326 14.5987 116.639 14.8087 117.003 14.958C117.367 15.098 117.764 15.168 118.193 15.168C118.641 15.168 119.047 15.0887 119.411 14.93C119.775 14.762 120.088 14.5333 120.349 14.244C120.62 13.9547 120.825 13.6187 120.965 13.236C121.114 12.844 121.189 12.4287 121.189 11.99ZM119.831 12.074C119.831 12.3353 119.798 12.5827 119.733 12.816C119.668 13.04 119.565 13.236 119.425 13.404C119.294 13.572 119.122 13.7027 118.907 13.796C118.702 13.8893 118.45 13.936 118.151 13.936C117.656 13.936 117.269 13.768 116.989 13.432C116.718 13.096 116.583 12.634 116.583 12.046C116.583 11.794 116.616 11.5607 116.681 11.346C116.756 11.122 116.858 10.9307 116.989 10.772C117.129 10.604 117.297 10.4733 117.493 10.38C117.689 10.2867 117.913 10.24 118.165 10.24C118.678 10.24 119.084 10.4033 119.383 10.73C119.682 11.0567 119.831 11.5047 119.831 12.074ZM128.428 14.944V9.176H127.098V9.834C126.949 9.61933 126.734 9.428 126.454 9.26C126.184 9.092 125.848 9.008 125.446 9.008C125.064 9.008 124.714 9.09667 124.396 9.274C124.088 9.442 123.818 9.67067 123.584 9.96C123.36 10.2493 123.183 10.5853 123.052 10.968C122.931 11.3507 122.87 11.752 122.87 12.172C122.87 12.6013 122.931 13.0027 123.052 13.376C123.183 13.74 123.36 14.0573 123.584 14.328C123.818 14.5893 124.088 14.7947 124.396 14.944C124.714 15.0933 125.064 15.168 125.446 15.168C125.792 15.168 126.104 15.1027 126.384 14.972C126.664 14.8413 126.902 14.6407 127.098 14.37V15.28C127.098 15.4853 127.052 15.658 126.958 15.798C126.874 15.9473 126.758 16.0687 126.608 16.162C126.459 16.2647 126.286 16.3393 126.09 16.386C125.894 16.4327 125.694 16.456 125.488 16.456C125.274 16.456 125.04 16.428 124.788 16.372C124.536 16.3253 124.247 16.1947 123.92 15.98L123.262 16.96C123.561 17.212 123.911 17.3893 124.312 17.492C124.714 17.5947 125.124 17.646 125.544 17.646C125.936 17.646 126.305 17.5993 126.65 17.506C126.996 17.422 127.299 17.2727 127.56 17.058C127.831 16.8527 128.041 16.5773 128.19 16.232C128.349 15.8867 128.428 15.4573 128.428 14.944ZM127.21 12.088C127.21 12.3307 127.173 12.564 127.098 12.788C127.033 13.012 126.935 13.208 126.804 13.376C126.674 13.544 126.515 13.6793 126.328 13.782C126.142 13.8847 125.932 13.936 125.698 13.936C125.465 13.936 125.255 13.8847 125.068 13.782C124.891 13.6793 124.737 13.544 124.606 13.376C124.485 13.208 124.392 13.012 124.326 12.788C124.261 12.564 124.228 12.3307 124.228 12.088C124.228 11.8453 124.261 11.612 124.326 11.388C124.392 11.164 124.485 10.968 124.606 10.8C124.737 10.632 124.891 10.4967 125.068 10.394C125.255 10.2913 125.47 10.24 125.712 10.24C125.946 10.24 126.151 10.296 126.328 10.408C126.515 10.5107 126.674 10.6507 126.804 10.828C126.935 10.996 127.033 11.192 127.098 11.416C127.173 11.6307 127.21 11.8547 127.21 12.088ZM132.141 7.846V6.236H130.811V7.846H132.141ZM132.141 15V9.176H130.811V15H132.141ZM139.811 13.754L138.901 13.026C138.668 13.2967 138.411 13.516 138.131 13.684C137.86 13.852 137.552 13.936 137.207 13.936C136.703 13.936 136.297 13.7727 135.989 13.446C135.681 13.1193 135.527 12.648 135.527 12.032C135.527 11.8173 135.56 11.6027 135.625 11.388C135.7 11.1733 135.807 10.982 135.947 10.814C136.087 10.646 136.255 10.5107 136.451 10.408C136.647 10.296 136.871 10.24 137.123 10.24C137.328 10.24 137.51 10.268 137.669 10.324C137.837 10.3707 137.986 10.436 138.117 10.52C138.248 10.604 138.364 10.6973 138.467 10.8C138.57 10.9027 138.658 11.0007 138.733 11.094L139.699 10.366C139.596 10.2167 139.466 10.0627 139.307 9.904C139.158 9.74533 138.971 9.60067 138.747 9.47C138.532 9.33933 138.29 9.232 138.019 9.148C137.748 9.05467 137.445 9.008 137.109 9.008C136.661 9.008 136.255 9.092 135.891 9.26C135.536 9.428 135.228 9.65667 134.967 9.946C134.715 10.226 134.519 10.5527 134.379 10.926C134.239 11.2993 134.169 11.6867 134.169 12.088C134.169 12.5173 134.23 12.9187 134.351 13.292C134.482 13.6653 134.673 13.992 134.925 14.272C135.186 14.552 135.508 14.7713 135.891 14.93C136.274 15.0887 136.717 15.168 137.221 15.168C137.482 15.168 137.739 15.1307 137.991 15.056C138.243 14.9813 138.481 14.8787 138.705 14.748C138.929 14.6173 139.134 14.468 139.321 14.3C139.508 14.1227 139.671 13.9407 139.811 13.754Z" fill="black"/>
<path d="M77.0694 13.572V12.074L74.4654 10.45L77.0694 8.84V7.37L73.2754 9.932V10.982L77.0694 13.572ZM85.023 12.004C85.023 11.5747 84.9577 11.178 84.827 10.814C84.7057 10.4407 84.5283 10.1233 84.295 9.862C84.071 9.59133 83.8003 9.38133 83.483 9.232C83.1657 9.08267 82.8203 9.008 82.447 9.008C82.1017 9.008 81.7843 9.08733 81.495 9.246C81.215 9.40467 80.9817 9.61467 80.795 9.876V4.78H79.465V15H80.795V14.3C80.9443 14.5147 81.1543 14.7153 81.425 14.902C81.705 15.0793 82.0457 15.168 82.447 15.168C82.8203 15.168 83.1657 15.084 83.483 14.916C83.8003 14.7387 84.071 14.5053 84.295 14.216C84.5283 13.9267 84.7057 13.5907 84.827 13.208C84.9577 12.8253 85.023 12.424 85.023 12.004ZM83.665 12.06C83.665 12.3213 83.6323 12.5687 83.567 12.802C83.5017 13.026 83.4037 13.222 83.273 13.39C83.1517 13.558 82.9977 13.6933 82.811 13.796C82.6243 13.8893 82.405 13.936 82.153 13.936C81.9383 13.936 81.7377 13.8847 81.551 13.782C81.3737 13.67 81.2197 13.5253 81.089 13.348C80.9583 13.1707 80.8557 12.97 80.781 12.746C80.7157 12.522 80.683 12.2933 80.683 12.06C80.683 11.8267 80.7157 11.6027 80.781 11.388C80.8557 11.164 80.9583 10.968 81.089 10.8C81.2197 10.632 81.3737 10.4967 81.551 10.394C81.7377 10.2913 81.943 10.24 82.167 10.24C82.419 10.24 82.6383 10.2913 82.825 10.394C83.0117 10.4873 83.1657 10.618 83.287 10.786C83.4177 10.954 83.511 11.15 83.567 11.374C83.6323 11.5887 83.665 11.8173 83.665 12.06ZM88.3856 15V4.78H87.0556V15H88.3856ZM95.8174 15V9.176H94.4874V12.312C94.4874 12.4893 94.4594 12.676 94.4034 12.872C94.3474 13.0587 94.2634 13.2313 94.1514 13.39C94.0394 13.5487 93.8994 13.6793 93.7314 13.782C93.5634 13.8847 93.3628 13.936 93.1294 13.936C92.7654 13.936 92.4901 13.8147 92.3034 13.572C92.1168 13.3293 92.0234 13.0447 92.0234 12.718V9.176H90.6934V12.97C90.6934 13.698 90.8754 14.2487 91.2394 14.622C91.6034 14.986 92.1354 15.168 92.8354 15.168C93.2088 15.168 93.5354 15.084 93.8154 14.916C94.1048 14.748 94.3288 14.5427 94.4874 14.3V15H95.8174ZM103.762 12.256C103.762 11.78 103.692 11.346 103.552 10.954C103.412 10.5527 103.211 10.212 102.95 9.932C102.698 9.64267 102.39 9.41867 102.026 9.26C101.671 9.092 101.274 9.008 100.836 9.008C100.397 9.008 99.9957 9.08733 99.6317 9.246C99.2677 9.39533 98.9503 9.60533 98.6797 9.876C98.4183 10.1467 98.213 10.4687 98.0637 10.842C97.9237 11.206 97.8537 11.6027 97.8537 12.032C97.8537 12.5267 97.9283 12.97 98.0777 13.362C98.2363 13.7447 98.451 14.0713 98.7217 14.342C99.0017 14.6033 99.3237 14.8087 99.6877 14.958C100.061 15.098 100.462 15.168 100.892 15.168C101.508 15.168 102.03 15.0653 102.46 14.86C102.898 14.6547 103.3 14.3933 103.664 14.076L102.852 13.236C102.581 13.4413 102.301 13.6093 102.012 13.74C101.732 13.8707 101.363 13.936 100.906 13.936C100.654 13.936 100.42 13.894 100.206 13.81C100 13.7167 99.823 13.5953 99.6737 13.446C99.5243 13.2967 99.4077 13.1193 99.3237 12.914C99.2397 12.7087 99.193 12.4893 99.1837 12.256H103.762ZM102.32 11.248H99.2397C99.3143 10.9213 99.4917 10.6647 99.7717 10.478C100.061 10.2913 100.397 10.198 100.78 10.198C101.153 10.198 101.475 10.2913 101.746 10.478C102.026 10.6553 102.217 10.912 102.32 11.248ZM145.466 10.982V9.932L141.672 7.37V8.84L144.276 10.45L141.672 12.074V13.572L145.466 10.982Z" fill="#43B2E5"/>
</svg>
