<svg width="114" height="20" viewBox="0 0 114 20" fill="none" xmlns="http://www.w3.org/2000/svg">
<path d="M5.796 7.616C5.796 7.272 5.736 6.956 5.616 6.668C5.496 6.372 5.312 6.12 5.064 5.912C4.824 5.704 4.52 5.54 4.152 5.42C3.792 5.3 3.368 5.24 2.88 5.24H0.96V14H1.5V10.184H2.88C3.352 10.184 3.768 10.124 4.128 10.004C4.496 9.876 4.8 9.7 5.04 9.476C5.288 9.244 5.476 8.972 5.604 8.66C5.732 8.34 5.796 7.992 5.796 7.616ZM5.232 7.664C5.232 7.944 5.192 8.208 5.112 8.456C5.032 8.704 4.9 8.92 4.716 9.104C4.54 9.288 4.308 9.436 4.02 9.548C3.74 9.652 3.4 9.704 3 9.704H1.5V5.72H2.784C3.64 5.72 4.26 5.892 4.644 6.236C5.036 6.58 5.232 7.056 5.232 7.664ZM11.1001 11.588C11.1001 11.212 11.0321 10.868 10.8961 10.556C10.7681 10.244 10.5881 9.976 10.3561 9.752C10.1241 9.528 9.85209 9.356 9.54009 9.236C9.23609 9.108 8.90809 9.044 8.55609 9.044C8.20409 9.044 7.87209 9.108 7.56009 9.236C7.25609 9.356 6.98809 9.528 6.75609 9.752C6.52409 9.976 6.34009 10.244 6.20409 10.556C6.07609 10.868 6.01209 11.212 6.01209 11.588C6.01209 11.964 6.07609 12.308 6.20409 12.62C6.34009 12.932 6.52409 13.204 6.75609 13.436C6.98809 13.66 7.25609 13.836 7.56009 13.964C7.87209 14.084 8.20409 14.144 8.55609 14.144C8.90809 14.144 9.23609 14.084 9.54009 13.964C9.85209 13.836 10.1241 13.66 10.3561 13.436C10.5881 13.204 10.7681 12.932 10.8961 12.62C11.0321 12.308 11.1001 11.964 11.1001 11.588ZM10.5841 11.588C10.5841 11.892 10.5321 12.172 10.4281 12.428C10.3241 12.684 10.1801 12.908 9.99609 13.1C9.82009 13.284 9.60809 13.428 9.36009 13.532C9.11209 13.636 8.84409 13.688 8.55609 13.688C8.26809 13.688 8.00009 13.636 7.75209 13.532C7.50409 13.428 7.28809 13.284 7.10409 13.1C6.92809 12.908 6.78809 12.684 6.68409 12.428C6.58009 12.172 6.52809 11.892 6.52809 11.588C6.52809 11.284 6.58009 11.004 6.68409 10.748C6.78809 10.492 6.92809 10.272 7.10409 10.088C7.28809 9.904 7.50409 9.76 7.75209 9.656C8.00009 9.552 8.26809 9.5 8.55609 9.5C8.84409 9.5 9.11209 9.552 9.36009 9.656C9.60809 9.76 9.82009 9.904 9.99609 10.088C10.1801 10.272 10.3241 10.492 10.4281 10.748C10.5321 11.004 10.5841 11.284 10.5841 11.588ZM18.7631 9.188H18.2471L16.7711 12.968L15.2231 9.188L13.7111 13.004L12.1751 9.188H11.6471L13.6991 14.276L15.2231 10.448L16.7591 14.276L18.7631 9.188ZM23.9028 11.528C23.8868 11.216 23.8348 10.912 23.7468 10.616C23.6588 10.32 23.5228 10.056 23.3388 9.824C23.1628 9.592 22.9348 9.404 22.6548 9.26C22.3828 9.116 22.0548 9.044 21.6708 9.044C21.2708 9.044 20.9228 9.116 20.6268 9.26C20.3308 9.396 20.0828 9.58 19.8828 9.812C19.6908 10.044 19.5468 10.308 19.4508 10.604C19.3548 10.9 19.3068 11.204 19.3068 11.516C19.3068 11.86 19.3548 12.192 19.4508 12.512C19.5548 12.824 19.7068 13.104 19.9068 13.352C20.1068 13.592 20.3588 13.784 20.6628 13.928C20.9748 14.072 21.3348 14.144 21.7428 14.144C21.9988 14.144 22.2308 14.116 22.4388 14.06C22.6548 14.012 22.8468 13.948 23.0148 13.868C23.1908 13.78 23.3428 13.684 23.4708 13.58C23.5988 13.476 23.7068 13.372 23.7948 13.268L23.4468 12.968C23.2228 13.2 22.9748 13.38 22.7028 13.508C22.4388 13.628 22.1268 13.688 21.7668 13.688C21.4548 13.688 21.1788 13.632 20.9388 13.52C20.6988 13.408 20.4948 13.256 20.3268 13.064C20.1668 12.872 20.0428 12.644 19.9548 12.38C19.8668 12.116 19.8228 11.832 19.8228 11.528H23.9028ZM23.3028 11.096H19.8468C19.8788 10.88 19.9388 10.676 20.0268 10.484C20.1148 10.292 20.2308 10.124 20.3748 9.98C20.5188 9.828 20.6948 9.712 20.9028 9.632C21.1188 9.544 21.3668 9.5 21.6468 9.5C21.9108 9.5 22.1428 9.548 22.3428 9.644C22.5428 9.74 22.7108 9.864 22.8468 10.016C22.9908 10.168 23.0988 10.34 23.1708 10.532C23.2428 10.724 23.2868 10.912 23.3028 11.096ZM27.8428 9.404C27.6988 9.268 27.5508 9.176 27.3988 9.128C27.2548 9.072 27.0868 9.044 26.8948 9.044C26.5988 9.044 26.3428 9.132 26.1268 9.308C25.9108 9.476 25.7468 9.676 25.6348 9.908V9.188H25.1428V14H25.6348V11.072C25.6348 10.888 25.6668 10.7 25.7308 10.508C25.8028 10.316 25.8948 10.144 26.0068 9.992C26.1188 9.84 26.2468 9.716 26.3908 9.62C26.5348 9.524 26.6868 9.476 26.8468 9.476C26.9988 9.476 27.1268 9.504 27.2308 9.56C27.3428 9.608 27.4508 9.68 27.5548 9.776L27.8428 9.404ZM32.9084 11.528C32.8924 11.216 32.8404 10.912 32.7524 10.616C32.6644 10.32 32.5284 10.056 32.3444 9.824C32.1684 9.592 31.9404 9.404 31.6604 9.26C31.3884 9.116 31.0604 9.044 30.6764 9.044C30.2764 9.044 29.9284 9.116 29.6324 9.26C29.3364 9.396 29.0884 9.58 28.8884 9.812C28.6964 10.044 28.5524 10.308 28.4564 10.604C28.3604 10.9 28.3124 11.204 28.3124 11.516C28.3124 11.86 28.3604 12.192 28.4564 12.512C28.5604 12.824 28.7124 13.104 28.9124 13.352C29.1124 13.592 29.3644 13.784 29.6684 13.928C29.9804 14.072 30.3404 14.144 30.7484 14.144C31.0044 14.144 31.2364 14.116 31.4444 14.06C31.6604 14.012 31.8524 13.948 32.0204 13.868C32.1964 13.78 32.3484 13.684 32.4764 13.58C32.6044 13.476 32.7124 13.372 32.8004 13.268L32.4524 12.968C32.2284 13.2 31.9804 13.38 31.7084 13.508C31.4444 13.628 31.1324 13.688 30.7724 13.688C30.4604 13.688 30.1844 13.632 29.9444 13.52C29.7044 13.408 29.5004 13.256 29.3324 13.064C29.1724 12.872 29.0484 12.644 28.9604 12.38C28.8724 12.116 28.8284 11.832 28.8284 11.528H32.9084ZM32.3084 11.096H28.8524C28.8844 10.88 28.9444 10.676 29.0324 10.484C29.1204 10.292 29.2364 10.124 29.3804 9.98C29.5244 9.828 29.7004 9.712 29.9084 9.632C30.1244 9.544 30.3724 9.5 30.6524 9.5C30.9164 9.5 31.1484 9.548 31.3484 9.644C31.5484 9.74 31.7164 9.864 31.8524 10.016C31.9964 10.168 32.1044 10.34 32.1764 10.532C32.2484 10.724 32.2924 10.912 32.3084 11.096ZM38.4204 14V5.24H37.9284V10.184C37.8644 10.04 37.7724 9.9 37.6524 9.764C37.5324 9.62 37.3924 9.496 37.2324 9.392C37.0804 9.288 36.9084 9.204 36.7164 9.14C36.5324 9.076 36.3364 9.044 36.1284 9.044C35.8084 9.044 35.5044 9.104 35.2164 9.224C34.9284 9.336 34.6764 9.504 34.4604 9.728C34.2444 9.952 34.0724 10.224 33.9444 10.544C33.8244 10.856 33.7644 11.216 33.7644 11.624C33.7644 11.96 33.8164 12.28 33.9204 12.584C34.0244 12.888 34.1724 13.156 34.3644 13.388C34.5564 13.62 34.7924 13.804 35.0724 13.94C35.3524 14.076 35.6684 14.144 36.0204 14.144C36.2364 14.144 36.4444 14.112 36.6444 14.048C36.8444 13.984 37.0284 13.9 37.1964 13.796C37.3644 13.692 37.5124 13.572 37.6404 13.436C37.7684 13.292 37.8644 13.148 37.9284 13.004V14H38.4204ZM37.9284 11.576C37.9284 11.872 37.8804 12.148 37.7844 12.404C37.6964 12.66 37.5684 12.884 37.4004 13.076C37.2324 13.268 37.0324 13.42 36.8004 13.532C36.5764 13.636 36.3284 13.688 36.0564 13.688C35.7604 13.688 35.5004 13.632 35.2764 13.52C35.0604 13.4 34.8764 13.244 34.7244 13.052C34.5804 12.86 34.4684 12.64 34.3884 12.392C34.3164 12.136 34.2804 11.868 34.2804 11.588C34.2804 10.94 34.4444 10.432 34.7724 10.064C35.1004 9.688 35.5364 9.5 36.0804 9.5C36.3524 9.5 36.6004 9.56 36.8244 9.68C37.0564 9.792 37.2524 9.948 37.4124 10.148C37.5804 10.34 37.7084 10.56 37.7964 10.808C37.8844 11.056 37.9284 11.312 37.9284 11.576ZM47.2827 11.6C47.2827 11.192 47.2227 10.832 47.1027 10.52C46.9907 10.2 46.8307 9.932 46.6227 9.716C46.4227 9.5 46.1787 9.336 45.8907 9.224C45.6107 9.104 45.2987 9.044 44.9547 9.044C44.7387 9.044 44.5347 9.076 44.3427 9.14C44.1507 9.204 43.9747 9.288 43.8147 9.392C43.6547 9.496 43.5147 9.62 43.3947 9.764C43.2747 9.9 43.1827 10.04 43.1187 10.184V5.24H42.6267V14H43.1187V13.004C43.1827 13.148 43.2747 13.292 43.3947 13.436C43.5147 13.572 43.6507 13.692 43.8027 13.796C43.9627 13.9 44.1387 13.984 44.3307 14.048C44.5227 14.112 44.7267 14.144 44.9427 14.144C45.3027 14.144 45.6267 14.076 45.9147 13.94C46.2107 13.796 46.4587 13.608 46.6587 13.376C46.8587 13.136 47.0107 12.864 47.1147 12.56C47.2267 12.256 47.2827 11.936 47.2827 11.6ZM46.7667 11.612C46.7667 11.876 46.7267 12.136 46.6467 12.392C46.5747 12.64 46.4627 12.86 46.3107 13.052C46.1587 13.244 45.9707 13.4 45.7467 13.52C45.5227 13.632 45.2667 13.688 44.9787 13.688C44.7067 13.688 44.4547 13.636 44.2227 13.532C43.9987 13.42 43.8027 13.268 43.6347 13.076C43.4747 12.884 43.3467 12.66 43.2507 12.404C43.1627 12.148 43.1187 11.872 43.1187 11.576C43.1187 11.312 43.1627 11.056 43.2507 10.808C43.3387 10.56 43.4627 10.34 43.6227 10.148C43.7827 9.948 43.9707 9.792 44.1867 9.68C44.4107 9.56 44.6547 9.5 44.9187 9.5C45.5187 9.5 45.9747 9.692 46.2867 10.076C46.6067 10.452 46.7667 10.964 46.7667 11.612ZM52.2335 9.188H51.7415L50.1335 13.328L48.4175 9.188H47.8895L49.8575 13.976L49.4375 15.02C49.3495 15.236 49.2335 15.424 49.0895 15.584C48.9535 15.744 48.7695 15.824 48.5375 15.824C48.4255 15.824 48.3215 15.808 48.2255 15.776C48.1375 15.752 48.0455 15.708 47.9495 15.644V16.124C48.1415 16.22 48.3775 16.268 48.6575 16.268C48.9375 16.268 49.1735 16.176 49.3655 15.992C49.5655 15.808 49.7215 15.572 49.8335 15.284L52.2335 9.188Z" fill="#666666"/>
<path d="M87.7624 6.14392C87.7265 6.07196 87.6905 6.07196 87.6185 6.03598C87.5466 6 87.5106 6 87.4386 6C87.3667 6 87.2587 6.03598 87.1868 6.07196C87.1148 6.10794 87.0429 6.1799 87.0069 6.25186L83.5888 14.7431C83.5528 14.815 83.5528 14.851 83.5168 14.923C83.5168 14.9949 83.5168 15.0309 83.5528 15.1029C83.5888 15.1748 83.6248 15.2108 83.6608 15.2468C83.7687 15.3187 83.8766 15.3907 83.9846 15.3907C84.0565 15.3907 84.0925 15.3907 84.1645 15.3547C84.2364 15.3187 84.2724 15.2828 84.3084 15.2468C84.3444 15.2108 84.3804 15.1388 84.4163 15.1029L87.8344 6.64763C87.8704 6.57567 87.9064 6.53969 87.9064 6.46774C87.9064 6.39578 87.9064 6.3598 87.8704 6.28784C87.8344 6.21588 87.7984 6.1799 87.7624 6.14392Z" fill="#002B43"/>
<path d="M91.2525 8.12451C90.1012 8.12451 89.0938 8.80813 89.0938 10.1754V11.4346C89.0938 12.7299 90.0652 13.4135 91.2885 13.4135C92.4399 13.4135 93.4473 12.6579 93.4473 11.3267V10.1394C93.4473 8.88008 92.5118 8.12451 91.2525 8.12451ZM92.5118 11.3987C92.5118 12.2622 92.0081 12.6579 91.2885 12.6579C90.461 12.6579 89.9932 12.1902 89.9932 11.4346V10.1394C89.9932 9.31184 90.5329 8.91606 91.2525 8.91606C92.0801 8.91606 92.5118 9.3838 92.5118 10.1034V11.3987Z" fill="#002B43"/>
<path d="M98.0528 8.95091C97.801 8.37524 97.1533 8.0874 96.5417 8.0874C95.5343 8.0874 94.6348 8.77102 94.6348 10.1023V11.3256C94.6348 12.4769 95.3903 13.1965 96.5417 13.1965C97.1533 13.1965 97.729 12.9447 98.0528 12.369V13.1965C98.0528 14.024 97.5491 14.5637 96.7216 14.5637C96.4697 14.5637 96.2539 14.5278 96.038 14.4198C95.8221 14.3119 95.6782 14.132 95.5343 13.9161L94.6707 14.2399C94.9946 14.9235 95.8221 15.2833 96.5777 15.2833C98.1608 15.2833 98.8804 14.2039 98.8804 13.0166V8.19534H97.9809V8.95091H98.0528ZM98.0528 11.1817C98.0528 12.1171 97.4052 12.5129 96.7935 12.4769C96.038 12.4769 95.5702 12.0452 95.5702 11.3616V10.0303C95.5702 9.20277 96.1819 8.87895 96.7576 8.87895C97.4412 8.87895 98.0528 9.31071 98.0528 10.1023V11.1817V11.1817Z" fill="#002B43"/>
<path d="M106.436 10.1003V9.99234C106.436 8.84099 105.501 8.19336 104.422 8.19336C103.234 8.19336 102.299 8.94893 102.299 10.2802V11.3236C102.299 12.6189 103.234 13.3025 104.422 13.3384C105.537 13.3384 106.401 12.6908 106.401 11.5395V11.4315H105.537V11.5395C105.537 12.1151 105.105 12.5469 104.422 12.5469C103.594 12.5469 103.198 12.0432 103.198 11.3236V10.1363C103.198 9.34471 103.702 8.87697 104.422 8.87697C105.141 8.87697 105.573 9.30873 105.573 9.8844V10.0283H106.436V10.1003Z" fill="#002B43"/>
<path d="M101.039 8.23193H100.14V13.3051H101.039V8.23193Z" fill="#002B43"/>
<path d="M101.039 6.0708H100.14V7.22215H101.039V6.0708Z" fill="#002B43"/>
<path d="M113.128 10.4235C113.092 10.3515 113.02 10.2795 112.948 10.2436L109.566 8.2287C109.494 8.19272 109.422 8.15674 109.314 8.15674C109.242 8.15674 109.206 8.15674 109.135 8.19272C109.063 8.2287 109.027 8.26468 108.991 8.30066C108.955 8.33664 108.919 8.4086 108.883 8.44458C108.847 8.51653 108.847 8.55251 108.847 8.62447C108.847 8.69643 108.883 8.76839 108.919 8.84035C108.955 8.91231 109.027 8.98427 109.099 9.02025L111.833 10.6753L109.099 12.3304C109.027 12.3664 108.955 12.4383 108.919 12.5103C108.883 12.5822 108.847 12.6542 108.847 12.7621C108.847 12.8341 108.847 12.8701 108.883 12.942C108.919 13.014 108.919 13.05 108.991 13.086C109.027 13.1219 109.099 13.1579 109.135 13.1939C109.206 13.2299 109.242 13.2299 109.314 13.2299C109.386 13.2299 109.494 13.2299 109.566 13.1579L112.948 11.1071C113.02 11.0711 113.092 10.9991 113.128 10.9272C113.164 10.8552 113.2 10.7833 113.2 10.6753C113.2 10.6034 113.164 10.5314 113.128 10.4235Z" fill="#00B8EC"/>
<path d="M61.3176 8.87633C61.3535 8.80437 61.3895 8.73241 61.3895 8.62447C61.3895 8.55251 61.3895 8.51653 61.3535 8.44458C61.3176 8.37262 61.3176 8.33664 61.2456 8.30066C61.2096 8.26468 61.1377 8.2287 61.1017 8.19272C61.0297 8.15674 60.9937 8.15674 60.9218 8.15674C60.8498 8.15674 60.7419 8.15674 60.6699 8.2287L57.2519 10.2795C57.1799 10.3155 57.1079 10.3875 57.072 10.4594C57.036 10.5314 57 10.6034 57 10.7113C57 10.7833 57.036 10.8912 57.072 10.9632C57.1079 11.0351 57.1799 11.1071 57.2519 11.143L60.6699 13.1579C60.7419 13.1939 60.8138 13.2299 60.9218 13.2299C60.9937 13.2299 61.0297 13.2299 61.1017 13.1939C61.1736 13.1579 61.2096 13.1219 61.2456 13.086C61.2816 13.05 61.3176 12.978 61.3535 12.942C61.3895 12.8701 61.3895 12.8341 61.3895 12.7621C61.3895 12.6902 61.3535 12.6182 61.3176 12.5463C61.2816 12.4743 61.2096 12.4023 61.1377 12.3664L58.4032 10.7113L61.1377 9.05623C61.2456 9.02025 61.2816 8.94829 61.3176 8.87633Z" fill="#00B8EC"/>
<path d="M66.2462 8.12179C65.9583 8.12179 65.6345 8.19375 65.3827 8.33767C65.1308 8.48159 64.879 8.69747 64.735 8.98531H64.6991V6.10693H63.7996V13.2669H64.6631V12.5833H64.6991C64.9149 13.051 65.4906 13.4108 66.1023 13.4108C67.1457 13.4108 68.1171 12.7991 68.1171 11.4319V9.99274C68.1531 8.80541 67.3615 8.12179 66.2462 8.12179ZM67.2536 11.4679C67.2536 12.2954 66.642 12.6192 66.0663 12.6552C65.8864 12.6552 65.7065 12.6193 65.5626 12.5833C65.4186 12.5113 65.2747 12.4394 65.1308 12.2954C65.0229 12.1875 64.9149 12.0436 64.843 11.8637C64.771 11.7198 64.735 11.5399 64.771 11.36V10.2806C64.771 9.38108 65.4186 8.91335 66.0303 8.91335C66.7499 8.91335 67.2536 9.3451 67.2536 9.99274V11.4679Z" fill="#00B8EC"/>
<path d="M70.3124 12.0076V6.10693H69.377V12.0076C69.377 12.5473 69.5209 13.3388 70.5643 13.3748C70.8521 13.3748 71.14 13.3388 71.4278 13.2309V12.5473C71.2479 12.5833 71.068 12.5833 70.8881 12.5833C70.4923 12.5833 70.3124 12.3314 70.3124 12.0076Z" fill="#00B8EC"/>
<path d="M80.2788 8.125C79.0555 8.125 78.0481 8.91655 78.0481 10.3198V11.3632C78.0481 12.7304 79.0555 13.414 80.3148 13.414C81.1064 13.414 81.8619 13.1262 82.2937 12.4066L81.6101 12.0108C81.4662 12.1907 81.2863 12.3706 81.0704 12.4785C80.8545 12.5865 80.6386 12.6584 80.3868 12.6584C79.5592 12.6584 79.0195 12.1907 79.0195 11.4351V11.0034H82.3657V10.1399C82.3297 8.77263 81.3582 8.125 80.2788 8.125ZM81.4302 10.3557H78.9836V10.1758C78.9836 9.38429 79.5233 8.88057 80.2429 8.88057C80.9984 8.88057 81.4302 9.34831 81.4302 10.1039V10.3557Z" fill="#00B8EC"/>
<path d="M75.9266 11.1458C75.9266 12.0813 75.351 12.585 74.6314 12.585C73.9837 12.585 73.588 12.1892 73.588 11.3257V8.23145H72.6885V11.6135C72.6885 12.6569 73.2642 13.3765 74.3795 13.3765C74.7033 13.3765 75.0272 13.3046 75.279 13.1247C75.5668 12.9808 75.7827 12.7289 75.9266 12.477V13.2686H76.7902V8.23145H75.8907V11.1458H75.9266Z" fill="#00B8EC"/>
</svg>
