<svg width="25" height="26" viewBox="0 0 25 26" fill="none" xmlns="http://www.w3.org/2000/svg">
<path d="M24.0706 3.77442C24.0154 3.67957 23.9393 3.59853 23.8481 3.53745C23.7569 3.47636 23.653 3.43682 23.5442 3.42184C23.4355 3.40685 23.3248 3.41681 23.2205 3.45095C23.1162 3.48509 23.021 3.54253 22.9421 3.6189L19.9764 6.56658C19.5778 6.4881 19.2116 6.29281 18.9243 6.00556C18.6371 5.7183 18.4418 5.35208 18.3633 4.95349L21.311 2.00582C21.3857 1.92554 21.4413 1.8293 21.4733 1.72439C21.5054 1.61948 21.5132 1.50864 21.4962 1.40027C21.4791 1.29191 21.4376 1.18884 21.3748 1.09888C21.312 1.00891 21.2296 0.934409 21.1338 0.881002C18.3235 -0.670596 15.0937 -0.146163 12.703 2.24453C11.6887 3.25701 10.9979 4.54802 10.7184 5.95372C10.439 7.35942 10.5834 8.81646 11.1334 10.14L0.778529 20.4948C0.259502 21.0691 -0.0188777 21.8209 0.000995264 22.5948C0.0208682 23.3686 0.337473 24.1051 0.885294 24.652C1.43311 25.1989 2.17022 25.5143 2.94407 25.5328C3.71793 25.5514 4.4693 25.2717 5.04271 24.7517L15.5892 14.2197C16.9729 14.6564 18.4558 14.6669 19.8455 14.2499C21.2352 13.8329 22.4674 13.0076 23.3819 11.8812C24.2965 10.7549 24.8512 9.37952 24.974 7.93382C25.0968 6.48812 24.7821 5.03891 24.0706 3.77442ZM21.9005 11.3697C21.1058 12.1731 20.0932 12.7262 18.9877 12.9608C17.8822 13.1954 16.7322 13.1012 15.6797 12.6898C15.5483 12.6381 15.4047 12.6259 15.2665 12.6549C15.1283 12.6838 15.0016 12.7525 14.902 12.8525L4.05171 23.7029C3.75723 23.9974 3.35783 24.1628 2.94136 24.1628C2.5249 24.1628 2.1255 23.9974 1.83101 23.7029C1.53653 23.4084 1.37109 23.009 1.37109 22.5925C1.37109 22.1761 1.53653 21.7767 1.83101 21.4822L12.515 10.8054C12.6229 10.6976 12.694 10.5583 12.7181 10.4076C12.7421 10.2569 12.7179 10.1024 12.6488 9.96635C12.2211 9.07233 12.0232 8.08573 12.0731 7.09593C12.1229 6.10613 12.419 5.1444 12.9343 4.29789C13.4497 3.45138 14.1681 2.74683 15.0246 2.24808C15.881 1.74933 16.8483 1.47213 17.8389 1.4416C18.4198 1.44197 18.9966 1.53852 19.546 1.72733L17.0974 4.1795C17.0268 4.25049 16.9717 4.33536 16.9356 4.42875C16.8995 4.52213 16.8832 4.622 16.8877 4.72202C16.929 5.59119 17.2928 6.41374 17.9081 7.02903C18.5234 7.64432 19.3459 8.00815 20.2151 8.04946C20.3151 8.05394 20.415 8.03761 20.5084 8.0015C20.6018 7.96539 20.6866 7.91029 20.7576 7.83968L23.2134 5.38389C23.5982 6.40615 23.6776 7.51821 23.442 8.58476C23.2063 9.65132 22.6657 10.6264 21.886 11.3914L21.9005 11.3697Z" fill="#333333"/>
</svg>
