<svg xmlns="http://www.w3.org/2000/svg" width="14" height="14" fill="none" viewBox="0 0 14 14">
    <mask id="x5dfg8aisa" fill="#fff">
        <path d="M7 0C3.14 0 0 3.14 0 7s3.14 7 7 7 7-3.14 7-7-3.14-7-7-7zm0 13.125C3.623 13.125.875 10.377.875 7S3.623.875 7 .875 13.125 3.623 13.125 7 10.377 13.125 7 13.125z"/>
    </mask>
    <path fill="#222" d="M7 0C3.14 0 0 3.14 0 7s3.14 7 7 7 7-3.14 7-7-3.14-7-7-7zm0 13.125C3.623 13.125.875 10.377.875 7S3.623.875 7 .875 13.125 3.623 13.125 7 10.377 13.125 7 13.125z"/>
    <path fill="#222" d="M7-1C2.588-1-1 2.588-1 7h2c0-3.307 2.693-6 6-6v-2zm-8 8c0 4.412 3.588 8 8 8v-2c-3.307 0-6-2.693-6-6h-2zm8 8c4.412 0 8-3.588 8-8h-2c0 3.307-2.693 6-6 6v2zm8-8c0-4.412-3.588-8-8-8v2c3.307 0 6 2.693 6 6h2zm-8 5.125c-2.825 0-5.125-2.3-5.125-5.125h-2c0 3.93 3.195 7.125 7.125 7.125v-2zM1.875 7c0-2.825 2.3-5.125 5.125-5.125v-2C3.07-.125-.125 3.07-.125 7h2zM7 1.875c2.825 0 5.125 2.3 5.125 5.125h2C14.125 3.07 10.93-.125 7-.125v2zM12.125 7c0 2.825-2.3 5.125-5.125 5.125v2c3.93 0 7.125-3.195 7.125-7.125h-2z" mask="url(#x5dfg8aisa)"/>
    <mask id="k8rmwjrj0b" fill="#fff">
        <path d="M7.438 2.625h-.875v4.556l2.753 2.753.618-.618-2.496-2.497V2.625z"/>
    </mask>
    <path fill="#222" d="M7.438 2.625h-.875v4.556l2.753 2.753.618-.618-2.496-2.497V2.625z"/>
    <path fill="#222" d="M7.438 2.625h1v-1h-1v1zm-.875 0v-1h-1v1h1zm0 4.556h-1v.414l.292.293.707-.707zm2.753 2.753l-.707.707.707.707.707-.707-.707-.707zm.618-.618l.707.707.707-.707-.707-.707-.707.707zM7.438 6.819h-1v.414l.292.293.707-.707zm0-5.194h-.875v2h.875v-2zm-1.875 1v4.556h2V2.625h-2zm.292 5.263l2.754 2.753 1.414-1.414L7.27 6.474 5.855 7.888zm4.168 2.753l.618-.618-1.414-1.414-.618.618 1.414 1.414zm.618-2.032L8.145 6.112 6.73 7.526l2.497 2.497 1.414-1.414zm-2.204-1.79V2.625h-2v4.194h2z" mask="url(#k8rmwjrj0b)"/>
</svg>
